<svg xmlns="http://www.w3.org/2000/svg" xmlns:xlink="http://www.w3.org/1999/xlink" contentStyleType="text/css" data-diagram-type="DESCRIPTION" height="628px" preserveAspectRatio="none" style="width:803px;height:628px;background:#FFFFFF;" version="1.1" viewBox="0 0 803 628" width="803px" zoomAndPan="magnify"><defs/><g><!--entity HC--><g class="entity" data-entity="HC" data-source-line="8" data-uid="ent0002" id="entity_HC"><rect fill="#FFFFCC" height="55.2969" rx="12.5" ry="12.5" style="stroke:#181818;stroke-width:0.5;" width="111.5127" x="438.37" y="7"/><path d="M498.3553,20.5 A0.5001,0.5001 0 0 0 498.0272,20.9746 L498.0526,23.6113 L485.4956,23.6153 A0.5001,0.5001 0 0 0 484.9956,24.1153 L484.9917,30.1641 A0.5001,0.5001 0 0 0 485.4937,30.6641 L498.0227,30.6172 L498.0227,32.9434 A0.5001,0.5001 0 0 0 498.9055,33.2637 L503.8996,27.3106 A0.5001,0.5001 0 0 0 503.9016,26.67 L498.9114,20.6505 A0.5001,0.5001 0 0 0 498.3547,20.5001 M499.0409,22.373 L502.8671,26.9882 L499.0233,31.5683 L499.0233,30.1152 A0.5001,0.5001 0 0 0 498.5213,29.6152 L485.9923,29.6621 L485.9962,24.6152 L498.5572,24.6112 A0.5001,0.5001 0 0 0 499.0572,24.1073" fill="#000000"/><text fill="#000000" font-family="sans-serif" font-size="14" lengthAdjust="spacing" textLength="91.5127" x="448.37" y="48.9951">Handle claim</text></g><!--entity CI--><g class="entity" data-entity="CI" data-source-line="9" data-uid="ent0003" id="entity_CI"><rect fill="#FFFFCC" height="55.2969" rx="12.5" ry="12.5" style="stroke:#181818;stroke-width:0.5;" width="161.709" x="37.27" y="130.45"/><path d="M122.3535,143.95 A0.5001,0.5001 0 0 0 122.0254,144.4246 L122.0508,147.0613 L109.4938,147.0653 A0.5001,0.5001 0 0 0 108.9938,147.5653 L108.9899,153.6141 A0.5001,0.5001 0 0 0 109.4918,154.1141 L122.0208,154.0672 L122.0208,156.3934 A0.5001,0.5001 0 0 0 122.9036,156.7137 L127.8977,150.7606 A0.5001,0.5001 0 0 0 127.8997,150.12 L122.9095,144.1005 A0.5001,0.5001 0 0 0 122.3529,143.9501 M123.039,145.823 L126.8652,150.4382 L123.0214,155.0183 L123.0214,153.5652 A0.5001,0.5001 0 0 0 122.5195,153.0652 L109.9905,153.1121 L109.9944,148.0652 L122.5554,148.0612 A0.5001,0.5001 0 0 0 123.0554,147.5573" fill="#000000"/><text fill="#000000" font-family="sans-serif" font-size="14" lengthAdjust="spacing" textLength="141.709" x="47.27" y="172.4451">Capture Information</text></g><!--entity NAS--><g class="entity" data-entity="NAS" data-source-line="10" data-uid="ent0004" id="entity_NAS"><rect fill="#FFFFCC" height="71.5938" rx="12.5" ry="12.5" style="stroke:#181818;stroke-width:0.5;" width="186.5303" x="233.86" y="122.3"/><path d="M331.3541,135.8 A0.5001,0.5001 0 0 0 331.026,136.2746 L331.0514,138.9113 L318.4944,138.9153 A0.5001,0.5001 0 0 0 317.9944,139.4153 L317.9905,145.4641 A0.5001,0.5001 0 0 0 318.4925,145.9641 L331.0215,145.9172 L331.0215,148.2434 A0.5001,0.5001 0 0 0 331.9043,148.5637 L336.8984,142.6106 A0.5001,0.5001 0 0 0 336.9004,141.97 L331.9102,135.9505 A0.5001,0.5001 0 0 0 331.3535,135.8001 M332.0397,137.673 L335.8659,142.2882 L332.0221,146.8683 L332.0221,145.4152 A0.5001,0.5001 0 0 0 331.5201,144.9152 L318.9911,144.9621 L318.995,139.9152 L331.556,139.9112 A0.5001,0.5001 0 0 0 332.056,139.4073" fill="#000000"/><text fill="#000000" font-family="sans-serif" font-size="14" lengthAdjust="spacing" textLength="41.6309" x="243.86" y="164.2951">Notify</text><text fill="#000000" font-family="sans-serif" font-size="14" lengthAdjust="spacing" textLength="166.5303" x="243.86" y="180.592">Additional Stakeholders</text></g><!--entity V--><g class="entity" data-entity="V" data-source-line="11" data-uid="ent0005" id="entity_V"><rect fill="#FFFFCC" height="55.2969" rx="12.5" ry="12.5" style="stroke:#181818;stroke-width:0.5;" width="77.5039" x="455.38" y="130.45"/><path d="M498.361,143.95 A0.5001,0.5001 0 0 0 498.0328,144.4246 L498.0582,147.0613 L485.5012,147.0653 A0.5001,0.5001 0 0 0 485.0012,147.5653 L484.9973,153.6141 A0.5001,0.5001 0 0 0 485.4993,154.1141 L498.0283,154.0672 L498.0283,156.3934 A0.5001,0.5001 0 0 0 498.9111,156.7137 L503.9052,150.7606 A0.5001,0.5001 0 0 0 503.9072,150.12 L498.917,144.1005 A0.5001,0.5001 0 0 0 498.3603,143.9501 M499.0465,145.823 L502.8727,150.4382 L499.0289,155.0183 L499.0289,153.5652 A0.5001,0.5001 0 0 0 498.527,153.0652 L485.998,153.1121 L486.0019,148.0652 L498.5629,148.0612 A0.5001,0.5001 0 0 0 499.0629,147.5573" fill="#000000"/><text fill="#000000" font-family="sans-serif" font-size="14" lengthAdjust="spacing" textLength="57.5039" x="465.38" y="172.4451">Validate</text></g><!--entity I--><g class="entity" data-entity="I" data-source-line="12" data-uid="ent0006" id="entity_I"><rect fill="#FFFFCC" height="55.2969" rx="12.5" ry="12.5" style="stroke:#181818;stroke-width:0.5;" width="98.1416" x="568.06" y="130.45"/><path d="M621.3598,143.95 A0.5001,0.5001 0 0 0 621.0317,144.4246 L621.0571,147.0613 L608.5001,147.0653 A0.5001,0.5001 0 0 0 608.0001,147.5653 L607.9962,153.6141 A0.5001,0.5001 0 0 0 608.4981,154.1141 L621.0271,154.0672 L621.0271,156.3934 A0.5001,0.5001 0 0 0 621.9099,156.7137 L626.904,150.7606 A0.5001,0.5001 0 0 0 626.906,150.12 L621.9158,144.1005 A0.5001,0.5001 0 0 0 621.3592,143.9501 M622.0454,145.823 L625.8716,150.4382 L622.0278,155.0183 L622.0278,153.5652 A0.5001,0.5001 0 0 0 621.5258,153.0652 L608.9968,153.1121 L609.0007,148.0652 L621.5617,148.0612 A0.5001,0.5001 0 0 0 622.0617,147.5573" fill="#000000"/><text fill="#000000" font-family="sans-serif" font-size="14" lengthAdjust="spacing" textLength="78.1416" x="578.06" y="172.4451">Investigate</text></g><!--entity P--><g class="entity" data-entity="P" data-source-line="13" data-uid="ent0007" id="entity_P"><rect fill="#FFFFCC" height="55.2969" rx="12.5" ry="12.5" style="stroke:#181818;stroke-width:0.5;" width="45.3066" x="701.47" y="130.45"/><path d="M728.3523,143.95 A0.5001,0.5001 0 0 0 728.0242,144.4246 L728.0496,147.0613 L715.4926,147.0653 A0.5001,0.5001 0 0 0 714.9926,147.5653 L714.9887,153.6141 A0.5001,0.5001 0 0 0 715.4906,154.1141 L728.0196,154.0672 L728.0196,156.3934 A0.5001,0.5001 0 0 0 728.9025,156.7137 L733.8966,150.7606 A0.5001,0.5001 0 0 0 733.8986,150.12 L728.9084,144.1005 A0.5001,0.5001 0 0 0 728.3517,143.9501 M729.0379,145.823 L732.8641,150.4382 L729.0203,155.0183 L729.0203,153.5652 A0.5001,0.5001 0 0 0 728.5183,153.0652 L715.9893,153.1121 L715.9932,148.0652 L728.5542,148.0612 A0.5001,0.5001 0 0 0 729.0542,147.5573" fill="#000000"/><text fill="#000000" font-family="sans-serif" font-size="14" lengthAdjust="spacing" textLength="25.3066" x="711.47" y="172.4451">Pay</text></g><!--entity scanning--><g class="entity" data-entity="scanning" data-source-line="26" data-uid="ent0017" id="entity_scanning"><rect fill="#C2F0FF" height="55.2969" rx="12.5" ry="12.5" style="stroke:#181818;stroke-width:0.5;" width="84.5586" x="231.85" y="253.89"/><path d="M271.1293,269.8 C268.4537,269.794 266.2762,272.0041 266.2521,274.7222 C266.228,277.4403 268.3662,279.6917 271.0415,279.7358 A0.5,0.5 0 0 0 271.057,279.7358 L278.598,279.7358 A0.5,0.5 0 0 0 278.604,279.7358 C281.2912,279.711 283.4492,277.4574 283.428,274.7278 C283.4069,272.0096 281.231,269.8012 278.559,269.8015 L278.559,269.7995 L278.5259,269.7995 M271.1273,270.7999 A0.5,0.5 0 0 0 271.1313,270.7999 L278.5587,270.7999 C280.6812,270.8001 282.4107,272.5435 282.4277,274.7356 C282.4448,276.9356 280.731,278.7139 278.598,278.7359 C278.597,278.736 278.595,278.7359 278.594,278.7359 L271.0591,278.7359 C268.9339,278.7008 267.2326,276.9241 267.2521,274.732 C267.2716,272.5399 269.0018,270.7956 271.1273,270.7999" fill="#000000"/><text fill="#000000" font-family="sans-serif" font-size="14" lengthAdjust="spacing" textLength="64.5586" x="241.85" y="295.8851">Scanning</text></g><!--entity customerAdministration--><g class="entity" data-entity="customerAdministration" data-source-line="27" data-uid="ent0018" id="entity_customerAdministration"><rect fill="#C2F0FF" height="55.2969" rx="12.5" ry="12.5" style="stroke:#181818;stroke-width:0.5;" width="190.2559" x="7" y="253.89"/><path d="M99.1279,269.8 C96.4523,269.794 94.2748,272.0041 94.2507,274.7222 C94.2266,277.4403 96.3648,279.6917 99.0401,279.7358 A0.5,0.5 0 0 0 99.0556,279.7358 L106.5966,279.7358 A0.5,0.5 0 0 0 106.6026,279.7358 C109.2898,279.711 111.4478,277.4574 111.4266,274.7278 C111.4055,272.0096 109.2296,269.8012 106.5576,269.8015 L106.5576,269.7995 L106.5245,269.7995 M99.1259,270.7999 A0.5,0.5 0 0 0 99.1299,270.7999 L106.5573,270.7999 C108.6798,270.8001 110.4093,272.5435 110.4263,274.7356 C110.4434,276.9356 108.7296,278.7139 106.5966,278.7359 C106.5956,278.736 106.5936,278.7359 106.5926,278.7359 L99.0577,278.7359 C96.9325,278.7008 95.2312,276.9241 95.2507,274.732 C95.2702,272.5399 97.0004,270.7956 99.1259,270.7999" fill="#000000"/><text fill="#000000" font-family="sans-serif" font-size="14" lengthAdjust="spacing" textLength="170.2559" x="17" y="295.8851">Customer admnistration</text></g><!--entity claimsAdministration--><g class="entity" data-entity="claimsAdministration" data-source-line="28" data-uid="ent0019" id="entity_claimsAdministration"><rect fill="#C2F0FF" height="55.2969" rx="12.5" ry="12.5" style="stroke:#181818;stroke-width:0.5;" width="169.3174" x="351.47" y="253.89"/><path d="M433.1287,269.8 C430.4531,269.794 428.2756,272.0041 428.2515,274.7222 C428.2274,277.4403 430.3656,279.6917 433.0409,279.7358 A0.5,0.5 0 0 0 433.0564,279.7358 L440.5974,279.7358 A0.5,0.5 0 0 0 440.6034,279.7358 C443.2906,279.711 445.4486,277.4574 445.4274,274.7278 C445.4063,272.0096 443.2304,269.8012 440.5584,269.8015 L440.5584,269.7995 L440.5253,269.7995 M433.1267,270.7999 A0.5,0.5 0 0 0 433.1307,270.7999 L440.5581,270.7999 C442.6806,270.8001 444.4101,272.5435 444.4271,274.7356 C444.4442,276.9356 442.7304,278.7139 440.5974,278.7359 C440.5964,278.736 440.5944,278.7359 440.5934,278.7359 L433.0585,278.7359 C430.9333,278.7008 429.232,276.9241 429.2515,274.732 C429.271,272.5399 431.0012,270.7956 433.1267,270.7999" fill="#000000"/><text fill="#000000" font-family="sans-serif" font-size="14" lengthAdjust="spacing" textLength="149.3174" x="361.47" y="295.8851">Claims admnistration</text></g><!--entity Printing--><g class="entity" data-entity="Printing" data-source-line="29" data-uid="ent0020" id="entity_Printing"><rect fill="#C2F0FF" height="55.2969" rx="12.5" ry="12.5" style="stroke:#181818;stroke-width:0.5;" width="74.0996" x="556.08" y="253.89"/><path d="M590.1298,269.8 C587.4542,269.794 585.2767,272.0041 585.2526,274.7222 C585.2285,277.4403 587.3667,279.6917 590.042,279.7358 A0.5,0.5 0 0 0 590.0575,279.7358 L597.5985,279.7358 A0.5,0.5 0 0 0 597.6045,279.7358 C600.2917,279.711 602.4497,277.4574 602.4285,274.7278 C602.4074,272.0096 600.2315,269.8012 597.5595,269.8015 L597.5595,269.7995 L597.5264,269.7995 M590.1278,270.7999 A0.5,0.5 0 0 0 590.1318,270.7999 L597.5592,270.7999 C599.6817,270.8001 601.4112,272.5435 601.4282,274.7356 C601.4453,276.9356 599.7315,278.7139 597.5985,278.7359 C597.5975,278.736 597.5955,278.7359 597.5945,278.7359 L590.0596,278.7359 C587.9344,278.7008 586.2331,276.9241 586.2526,274.732 C586.2721,272.5399 588.0023,270.7956 590.1278,270.7999" fill="#000000"/><text fill="#000000" font-family="sans-serif" font-size="14" lengthAdjust="spacing" textLength="54.0996" x="566.08" y="295.8851">Printing</text></g><!--entity Payment--><g class="entity" data-entity="Payment" data-source-line="30" data-uid="ent0021" id="entity_Payment"><rect fill="#C2F0FF" height="55.2969" rx="12.5" ry="12.5" style="stroke:#181818;stroke-width:0.5;" width="81.9199" x="687.17" y="253.89"/><path d="M725.13,269.8 C722.4544,269.794 720.2769,272.0041 720.2528,274.7222 C720.2287,277.4403 722.3669,279.6917 725.0422,279.7358 A0.5,0.5 0 0 0 725.0577,279.7358 L732.5987,279.7358 A0.5,0.5 0 0 0 732.6047,279.7358 C735.2919,279.711 737.4499,277.4574 737.4287,274.7278 C737.4076,272.0096 735.2317,269.8012 732.5597,269.8015 L732.5597,269.7995 L732.5266,269.7995 M725.128,270.7999 A0.5,0.5 0 0 0 725.132,270.7999 L732.5594,270.7999 C734.6819,270.8001 736.4114,272.5435 736.4284,274.7356 C736.4455,276.9356 734.7317,278.7139 732.5987,278.7359 C732.5977,278.736 732.5957,278.7359 732.5947,278.7359 L725.0598,278.7359 C722.9346,278.7008 721.2333,276.9241 721.2528,274.732 C721.2723,272.5399 723.0025,270.7956 725.128,270.7999" fill="#000000"/><text fill="#000000" font-family="sans-serif" font-size="14" lengthAdjust="spacing" textLength="61.9199" x="697.17" y="295.8851">Payment</text></g><!--entity DMS--><g class="entity" data-entity="DMS" data-source-line="42" data-uid="ent0038" id="entity_DMS"><rect fill="#C2F0FF" height="87.8906" rx="2.5" ry="2.5" style="stroke:#181818;stroke-width:0.5;" width="112.2236" x="528.02" y="369.19"/><path d="M593.3918,383.829 L578.5658,383.876 A0.5001,0.5001 0 0 0 578.0661,384.3757 L578.0661,385.8133 L575.5779,385.7937 A0.5001,0.5001 0 0 0 575.0735,386.2939 L575.0735,388.2292 A0.5001,0.5001 0 0 0 575.5738,388.7295 L578.0543,388.7295 L578.0305,389.7723 L575.5309,389.7526 A0.5001,0.5001 0 0 0 575.027,390.2528 L575.027,392.1881 A0.5001,0.5001 0 0 0 575.5267,392.6884 L578.0191,392.6884 L578.0191,395.6903 A0.5001,0.5001 0 0 0 578.5194,396.1905 L593.3924,396.237 A0.5001,0.5001 0 0 0 593.8942,395.7373 L593.8942,384.3293 A0.5001,0.5001 0 0 0 593.3924,383.8291 M592.8936,384.831 L592.8936,395.235 L579.0186,395.1921 L579.0186,392.6884 L581.513,392.6884 A0.5001,0.5001 0 0 0 582.0128,392.1882 L582.0128,390.2999 A0.5001,0.5001 0 0 0 581.5167,389.7997 L579.0305,389.78 L579.0543,388.7294 L581.5596,388.7294 A0.5001,0.5001 0 0 0 582.0598,388.2292 L582.0598,386.3404 A0.5001,0.5001 0 0 0 581.5637,385.8407 L579.0657,385.821 L579.0657,384.8738 M576.0736,386.7978 L581.0599,386.8366 L581.0599,387.7295 L576.0736,387.7295 M576.0266,390.7567 L581.0129,390.796 L581.0129,391.6884 L576.0266,391.6884" fill="#000000"/><text fill="#000000" font-family="sans-serif" font-size="14" lengthAdjust="spacing" textLength="72.5293" x="538.02" y="411.1851">Document</text><text fill="#000000" font-family="sans-serif" font-size="14" lengthAdjust="spacing" textLength="92.2236" x="538.02" y="427.482">Management</text><text fill="#000000" font-family="sans-serif" font-size="14" lengthAdjust="spacing" textLength="52.2061" x="538.02" y="443.7789">System</text></g><!--entity CRM--><g class="entity" data-entity="CRM" data-source-line="43" data-uid="ent0039" id="entity_CRM"><rect fill="#C2F0FF" height="87.8906" rx="2.5" ry="2.5" style="stroke:#181818;stroke-width:0.5;" width="75.1729" x="64.54" y="369.19"/><path d="M111.3864,383.829 L96.5604,383.876 A0.5001,0.5001 0 0 0 96.0607,384.3757 L96.0607,385.8133 L93.5725,385.7937 A0.5001,0.5001 0 0 0 93.0682,386.2939 L93.0682,388.2292 A0.5001,0.5001 0 0 0 93.5684,388.7295 L96.0489,388.7295 L96.0251,389.7723 L93.5255,389.7526 A0.5001,0.5001 0 0 0 93.0216,390.2528 L93.0216,392.1881 A0.5001,0.5001 0 0 0 93.5213,392.6884 L96.0137,392.6884 L96.0137,395.6903 A0.5001,0.5001 0 0 0 96.514,396.1905 L111.387,396.237 A0.5001,0.5001 0 0 0 111.8888,395.7373 L111.8888,384.3293 A0.5001,0.5001 0 0 0 111.387,383.8291 M110.8883,384.831 L110.8883,395.235 L97.0133,395.1921 L97.0133,392.6884 L99.5077,392.6884 A0.5001,0.5001 0 0 0 100.0074,392.1882 L100.0074,390.2999 A0.5001,0.5001 0 0 0 99.5113,389.7997 L97.0251,389.78 L97.0489,388.7294 L99.5542,388.7294 A0.5001,0.5001 0 0 0 100.0544,388.2292 L100.0544,386.3404 A0.5001,0.5001 0 0 0 99.5583,385.8407 L97.0603,385.821 L97.0603,384.8738 M94.0683,386.7978 L99.0546,386.8366 L99.0546,387.7295 L94.0683,387.7295 M94.0213,390.7567 L99.0076,390.796 L99.0076,391.6884 L94.0213,391.6884" fill="#000000"/><text fill="#000000" font-family="sans-serif" font-size="14" lengthAdjust="spacing" textLength="55.1729" x="74.54" y="411.1851">General</text><text fill="#000000" font-family="sans-serif" font-size="14" lengthAdjust="spacing" textLength="31.582" x="74.54" y="427.482">CRM</text><text fill="#000000" font-family="sans-serif" font-size="14" lengthAdjust="spacing" textLength="52.2061" x="74.54" y="443.7789">System</text></g><!--entity HAPA--><g class="entity" data-entity="HAPA" data-source-line="44" data-uid="ent0040" id="entity_HAPA"><rect fill="#C2F0FF" height="87.8906" rx="2.5" ry="2.5" style="stroke:#181818;stroke-width:0.5;" width="122.6895" x="370.78" y="369.19"/><path d="M441.3847,383.829 L426.5587,383.876 A0.5001,0.5001 0 0 0 426.059,384.3757 L426.059,385.8133 L423.5708,385.7937 A0.5001,0.5001 0 0 0 423.0665,386.2939 L423.0665,388.2292 A0.5001,0.5001 0 0 0 423.5667,388.7295 L426.0472,388.7295 L426.0234,389.7723 L423.5238,389.7526 A0.5001,0.5001 0 0 0 423.0199,390.2528 L423.0199,392.1881 A0.5001,0.5001 0 0 0 423.5196,392.6884 L426.012,392.6884 L426.012,395.6903 A0.5001,0.5001 0 0 0 426.5123,396.1905 L441.3853,396.237 A0.5001,0.5001 0 0 0 441.8871,395.7373 L441.8871,384.3293 A0.5001,0.5001 0 0 0 441.3853,383.8291 M440.8866,384.831 L440.8866,395.235 L427.0116,395.1921 L427.0116,392.6884 L429.506,392.6884 A0.5001,0.5001 0 0 0 430.0057,392.1882 L430.0057,390.2999 A0.5001,0.5001 0 0 0 429.5096,389.7997 L427.0234,389.78 L427.0472,388.7294 L429.5525,388.7294 A0.5001,0.5001 0 0 0 430.0527,388.2292 L430.0527,386.3404 A0.5001,0.5001 0 0 0 429.5566,385.8407 L427.0586,385.821 L427.0586,384.8738 M424.0666,386.7978 L429.0529,386.8366 L429.0529,387.7295 L424.0666,387.7295 M424.0196,390.7567 L429.0059,390.796 L429.0059,391.6884 L424.0196,391.6884" fill="#000000"/><text fill="#000000" font-family="sans-serif" font-size="14" lengthAdjust="spacing" textLength="99.0527" x="380.78" y="411.1851">Home &amp; Away</text><text fill="#000000" font-family="sans-serif" font-size="14" lengthAdjust="spacing" textLength="40.7695" x="380.78" y="427.482">Policy</text><text fill="#000000" font-family="sans-serif" font-size="14" lengthAdjust="spacing" textLength="102.6895" x="380.78" y="443.7789">Administration</text></g><!--entity HFPA--><g class="entity" data-entity="HFPA" data-source-line="45" data-uid="ent0041" id="entity_HFPA"><rect fill="#C2F0FF" height="87.8906" rx="2.5" ry="2.5" style="stroke:#181818;stroke-width:0.5;" width="122.6895" x="674.78" y="369.19"/><path d="M745.3847,383.829 L730.5587,383.876 A0.5001,0.5001 0 0 0 730.059,384.3757 L730.059,385.8133 L727.5708,385.7937 A0.5001,0.5001 0 0 0 727.0665,386.2939 L727.0665,388.2292 A0.5001,0.5001 0 0 0 727.5667,388.7295 L730.0472,388.7295 L730.0234,389.7723 L727.5238,389.7526 A0.5001,0.5001 0 0 0 727.0199,390.2528 L727.0199,392.1881 A0.5001,0.5001 0 0 0 727.5196,392.6884 L730.012,392.6884 L730.012,395.6903 A0.5001,0.5001 0 0 0 730.5123,396.1905 L745.3853,396.237 A0.5001,0.5001 0 0 0 745.8871,395.7373 L745.8871,384.3293 A0.5001,0.5001 0 0 0 745.3853,383.8291 M744.8866,384.831 L744.8866,395.235 L731.0116,395.1921 L731.0116,392.6884 L733.506,392.6884 A0.5001,0.5001 0 0 0 734.0057,392.1882 L734.0057,390.2999 A0.5001,0.5001 0 0 0 733.5096,389.7997 L731.0234,389.78 L731.0472,388.7294 L733.5525,388.7294 A0.5001,0.5001 0 0 0 734.0527,388.2292 L734.0527,386.3404 A0.5001,0.5001 0 0 0 733.5566,385.8407 L731.0586,385.821 L731.0586,384.8738 M728.0666,386.7978 L733.0529,386.8366 L733.0529,387.7295 L728.0666,387.7295 M728.0196,390.7567 L733.0059,390.796 L733.0059,391.6884 L728.0196,391.6884" fill="#000000"/><text fill="#000000" font-family="sans-serif" font-size="14" lengthAdjust="spacing" textLength="99.0527" x="684.78" y="411.1851">Home &amp; Away</text><text fill="#000000" font-family="sans-serif" font-size="14" lengthAdjust="spacing" textLength="62.3232" x="684.78" y="427.482">Financial</text><text fill="#000000" font-family="sans-serif" font-size="14" lengthAdjust="spacing" textLength="102.6895" x="684.78" y="443.7789">Administration</text></g><!--reverse link HC to CI--><g class="link" data-entity-1="HC" data-entity-2="CI" data-source-line="15" data-uid="lnk8" id="link_HC_CI"><path d="M426.5225,55.9093 C370.2325,72.9093 292.63,96.81 216.13,122.3 C208.76,124.75 201.11,127.36 193.47,130.01" fill="none" id="HC-backto-CI" style="stroke:#181818;stroke-width:1;"/><polygon fill="#181818" points="438.01,52.44,431.1098,50.3455,426.5225,55.9093,433.4227,58.0038,438.01,52.44" style="stroke:#181818;stroke-width:1;"/></g><!--reverse link HC to NAS--><g class="link" data-entity-1="HC" data-entity-2="NAS" data-source-line="16" data-uid="lnk9" id="link_HC_NAS"><path d="M447.3639,69.6564 C423.3339,87.1264 401.5,103.01 375.51,121.91" fill="none" id="HC-backto-NAS" style="stroke:#181818;stroke-width:1;"/><polygon fill="#181818" points="457.07,62.6,449.8648,62.8928,447.3639,69.6564,454.5691,69.3635,457.07,62.6" style="stroke:#181818;stroke-width:1;"/></g><!--reverse link HC to V--><g class="link" data-entity-1="HC" data-entity-2="V" data-source-line="17" data-uid="lnk10" id="link_HC_V"><path d="M494.13,74.6 C494.13,94.73 494.13,110.11 494.13,130.22" fill="none" id="HC-backto-V" style="stroke:#181818;stroke-width:1;"/><polygon fill="#181818" points="494.13,62.6,490.13,68.6,494.13,74.6,498.13,68.6,494.13,62.6" style="stroke:#181818;stroke-width:1;"/></g><!--reverse link HC to I--><g class="link" data-entity-1="HC" data-entity-2="I" data-source-line="18" data-uid="lnk11" id="link_HC_I"><path d="M529.9675,71.0328 C550.3475,91.1628 569.54,110.11 589.91,130.22" fill="none" id="HC-backto-I" style="stroke:#181818;stroke-width:1;"/><polygon fill="#181818" points="521.43,62.6,522.8878,69.6622,529.9675,71.0328,528.5097,63.9705,521.43,62.6" style="stroke:#181818;stroke-width:1;"/></g><!--reverse link HC to P--><g class="link" data-entity-1="HC" data-entity-2="P" data-source-line="19" data-uid="lnk12" id="link_HC_P"><path d="M561.5114,60.7425 C600.5314,76.2525 641.75,95.02 684.13,122.3 C690.01,126.08 695.93,130.69 701.34,135.29" fill="none" id="HC-backto-P" style="stroke:#181818;stroke-width:1;"/><polygon fill="#181818" points="550.36,56.31,554.4582,62.2434,561.5114,60.7425,557.4132,54.8091,550.36,56.31" style="stroke:#181818;stroke-width:1;"/></g><!--link CI to NAS--><g class="link" data-entity-1="CI" data-entity-2="NAS" data-source-line="21" data-uid="lnk13" id="link_CI_NAS"><path d="M199.36,158.1 C210.84,158.1 214.32,158.1 225.8,158.1" fill="none" id="CI-to-NAS" style="stroke:#181818;stroke-width:1;"/><polygon fill="#181818" points="233.8,158.1,225.8,155.1,225.8,161.1,233.8,158.1" style="stroke:#181818;stroke-width:1;"/></g><!--link NAS to V--><g class="link" data-entity-1="NAS" data-entity-2="V" data-source-line="22" data-uid="lnk14" id="link_NAS_V"><path d="M420.74,158.1 C432.21,158.1 435.67,158.1 447.14,158.1" fill="none" id="NAS-to-V" style="stroke:#181818;stroke-width:1;"/><polygon fill="#181818" points="455.14,158.1,447.14,155.1,447.14,161.1,455.14,158.1" style="stroke:#181818;stroke-width:1;"/></g><!--link V to I--><g class="link" data-entity-1="V" data-entity-2="I" data-source-line="23" data-uid="lnk15" id="link_V_I"><path d="M533.05,158.1 C544.65,158.1 548.26,158.1 559.86,158.1" fill="none" id="V-to-I" style="stroke:#181818;stroke-width:1;"/><polygon fill="#181818" points="567.86,158.1,559.86,155.1,559.86,161.1,567.86,158.1" style="stroke:#181818;stroke-width:1;"/></g><!--link I to P--><g class="link" data-entity-1="I" data-entity-2="P" data-source-line="24" data-uid="lnk16" id="link_I_P"><path d="M666.45,158.1 C678.01,158.1 681.58,158.1 693.15,158.1" fill="none" id="I-to-P" style="stroke:#181818;stroke-width:1;"/><polygon fill="#181818" points="701.15,158.1,693.15,155.1,693.15,161.1,701.15,158.1" style="stroke:#181818;stroke-width:1;"/></g><!--reverse link CI to scanning--><g class="link" data-entity-1="CI" data-entity-2="scanning" data-source-line="32" data-uid="lnk23" id="link_CI_scanning"><path d="M157.4848,189.7353 C183.2448,209.7853 213.53,233.37 239.33,253.45" fill="none" id="CI-backto-scanning" style="stroke:#181818;stroke-width:1;"/><polygon fill="#181818" points="152.75,186.05,157.3954,194.7345,156.6957,189.1211,162.3091,188.4214,152.75,186.05" style="stroke:#181818;stroke-width:1;"/></g><!--reverse link CI to customerAdministration--><g class="link" data-entity-1="CI" data-entity-2="customerAdministration" data-source-line="33" data-uid="lnk25" id="link_CI_customerAdministration"><path d="M113.7965,191.9986 C111.1465,212.1186 108.32,233.56 105.67,253.66" fill="none" id="CI-backto-customerAdministration" style="stroke:#181818;stroke-width:1;"/><polygon fill="#181818" points="114.58,186.05,109.439,194.4506,113.9271,191.0072,117.3705,195.4953,114.58,186.05" style="stroke:#181818;stroke-width:1;"/></g><!--reverse link NAS to claimsAdministration--><g class="link" data-entity-1="NAS" data-entity-2="claimsAdministration" data-source-line="34" data-uid="lnk27" id="link_NAS_claimsAdministration"><path d="M362.6662,198.6866 C379.6362,217.6066 396.25,236.11 411.94,253.6" fill="none" id="NAS-backto-claimsAdministration" style="stroke:#181818;stroke-width:1;"/><polygon fill="#181818" points="358.66,194.22,361.6916,203.5907,361.9985,197.9421,367.647,198.249,358.66,194.22" style="stroke:#181818;stroke-width:1;"/></g><!--reverse link V to claimsAdministration--><g class="link" data-entity-1="V" data-entity-2="claimsAdministration" data-source-line="35" data-uid="lnk29" id="link_V_claimsAdministration"><path d="M478.6718,191.4631 C469.0518,211.5831 458.57,233.56 448.96,253.66" fill="none" id="V-backto-claimsAdministration" style="stroke:#181818;stroke-width:1;"/><polygon fill="#181818" points="481.26,186.05,473.769,192.4442,479.1032,190.5609,480.9865,195.8951,481.26,186.05" style="stroke:#181818;stroke-width:1;"/></g><!--reverse link I to claimsAdministration--><g class="link" data-entity-1="I" data-entity-2="claimsAdministration" data-source-line="36" data-uid="lnk31" id="link_I_claimsAdministration"><path d="M571.9772,189.3924 C542.0872,209.4424 506.44,233.37 476.5,253.45" fill="none" id="I-backto-claimsAdministration" style="stroke:#181818;stroke-width:1;"/><polygon fill="#181818" points="576.96,186.05,567.2575,187.7418,572.8077,188.8354,571.7141,194.3855,576.96,186.05" style="stroke:#181818;stroke-width:1;"/></g><!--reverse link P to Payment--><g class="link" data-entity-1="P" data-entity-2="Payment" data-source-line="37" data-uid="lnk33" id="link_P_Payment"><path d="M725.2167,192.0468 C725.8767,212.1668 726.58,233.56 727.24,253.66" fill="none" id="P-backto-Payment" style="stroke:#181818;stroke-width:1;"/><polygon fill="#181818" points="725.02,186.05,721.3172,195.1763,725.1839,191.0473,729.3129,194.914,725.02,186.05" style="stroke:#181818;stroke-width:1;"/></g><!--reverse link V to Printing--><g class="link" data-entity-1="V" data-entity-2="Printing" data-source-line="39" data-uid="lnk35" id="link_V_Printing"><path d="M519.8922,190.6996 C536.3022,210.8196 554.83,233.56 571.22,253.66" fill="none" id="V-backto-Printing" style="stroke:#181818;stroke-width:1;"/><polygon fill="#181818" points="516.1,186.05,518.6886,195.5526,519.2602,189.9247,524.8881,190.4962,516.1,186.05" style="stroke:#181818;stroke-width:1;"/></g><!--reverse link P to Printing--><g class="link" data-entity-1="P" data-entity-2="Printing" data-source-line="40" data-uid="lnk37" id="link_P_Printing"><path d="M696.6097,184.6089 C674.5697,205.0389 645.72,231.78 621.97,253.81" fill="none" id="P-backto-Printing" style="stroke:#181818;stroke-width:1;"/><polygon fill="#181818" points="701.01,180.53,691.6903,183.7148,697.3431,183.9291,697.1288,189.5819,701.01,180.53" style="stroke:#181818;stroke-width:1;"/></g><!--reverse link scanning to DMS--><g class="link" data-entity-1="scanning" data-entity-2="DMS" data-source-line="47" data-uid="lnk43" id="link_scanning_DMS"><path d="M333.4076,309.1736 C339.1776,311.6436 328.5,306.99 334.13,309.19 C411.5,339.41 435.6,334.62 511.13,369.19 C516.61,371.7 522.21,374.51 527.74,377.45" fill="none" id="scanning-backto-DMS" style="stroke:#181818;stroke-width:1;stroke-dasharray:7,7;"/><polygon fill="none" points="316.86,302.09,331.0464,314.6895,335.7688,303.6578,316.86,302.09" style="stroke:#181818;stroke-width:1;"/></g><!--reverse link Printing to DMS--><g class="link" data-entity-1="Printing" data-entity-2="DMS" data-source-line="48" data-uid="lnk45" id="link_Printing_DMS"><path d="M590.0126,327.3467 C588.8226,344.4767 588.51,349.1 587.14,368.74" fill="none" id="Printing-backto-DMS" style="stroke:#181818;stroke-width:1;stroke-dasharray:7,7;"/><polygon fill="none" points="591.26,309.39,584.027,326.9309,595.9981,327.7625,591.26,309.39" style="stroke:#181818;stroke-width:1;"/></g><!--reverse link customerAdministration to CRM--><g class="link" data-entity-1="customerAdministration" data-entity-2="CRM" data-source-line="49" data-uid="lnk47" id="link_customerAdministration_CRM"><path d="M102.13,327.39 C102.13,344.52 102.13,349.1 102.13,368.74" fill="none" id="customerAdministration-backto-CRM" style="stroke:#181818;stroke-width:1;stroke-dasharray:7,7;"/><polygon fill="none" points="102.13,309.39,96.13,327.39,108.13,327.39,102.13,309.39" style="stroke:#181818;stroke-width:1;"/></g><!--reverse link claimsAdministration to HAPA--><g class="link" data-entity-1="claimsAdministration" data-entity-2="HAPA" data-source-line="50" data-uid="lnk49" id="link_claimsAdministration_HAPA"><path d="M434.7433,327.3814 C434.2133,344.5114 434.07,349.1 433.47,368.74" fill="none" id="claimsAdministration-backto-HAPA" style="stroke:#181818;stroke-width:1;stroke-dasharray:7,7;"/><polygon fill="none" points="435.3,309.39,428.7462,327.1958,440.7405,327.5669,435.3,309.39" style="stroke:#181818;stroke-width:1;"/></g><!--reverse link Payment to HFPA--><g class="link" data-entity-1="Payment" data-entity-2="HFPA" data-source-line="51" data-uid="lnk51" id="link_Payment_HFPA"><path d="M730.8913,327.3563 C731.9413,344.4863 732.24,349.1 733.45,368.74" fill="none" id="Payment-backto-HFPA" style="stroke:#181818;stroke-width:1;stroke-dasharray:7,7;"/><polygon fill="none" points="729.79,309.39,724.9025,327.7234,736.88,326.9892,729.79,309.39" style="stroke:#181818;stroke-width:1;"/></g><g class="legend" data-source-line="53"><rect fill="#DDDDDD" height="133.9784" rx="7.5" ry="7.5" style="stroke:#000000;stroke-width:1;" width="424.3672" x="12" y="474.0806"/><text fill="#000000" font-family="sans-serif" font-size="14" lengthAdjust="spacing" textLength="414.3672" x="17" y="492.0757">Example from the "Archisurance case study" (OpenGroup).</text><text fill="#000000" font-family="sans-serif" font-size="14" lengthAdjust="spacing" textLength="26.1133" x="17" y="508.3726">See</text><line style="stroke:#000000;stroke-width:1;" x1="12" x2="436.3672" y1="516.6744" y2="516.6744"/><line style="stroke:#000000;stroke-width:1;" x1="12" x2="436.3672" y1="518.6744" y2="518.6744"/><path d="M31.7851,525.4436 A0.5385,0.5385 0 0 0 31.4317,525.9547 L31.4591,528.7942 L17.9361,528.7986 A0.5385,0.5385 0 0 0 17.3977,529.337 L17.3935,535.8511 A0.5385,0.5385 0 0 0 17.934,536.3896 L31.4268,536.3391 L31.4268,538.8442 A0.5385,0.5385 0 0 0 32.3775,539.1892 L37.7558,532.7781 A0.5385,0.5385 0 0 0 37.7579,532.0882 L32.3839,525.6057 A0.5385,0.5385 0 0 0 31.7844,525.4437 M32.5234,527.4607 L36.6439,532.4309 L32.5044,537.3633 L32.5044,535.7984 A0.5385,0.5385 0 0 0 31.9638,535.26 L18.4711,535.3105 L18.4753,529.8754 L32.0025,529.8711 A0.5385,0.5385 0 0 0 32.541,529.3284" fill="#000000"/><text fill="#000000" font-family="sans-serif" font-size="14" lengthAdjust="spacing" textLength="124.291" x="41.9117" y="538.8342">:business process</text><line style="stroke:#000000;stroke-width:1;" x1="12" x2="436.3672" y1="547.1359" y2="547.1359"/><line style="stroke:#000000;stroke-width:1;" x1="12" x2="436.3672" y1="549.1359" y2="549.1359"/><path d="M24,558.5005 C21.1186,558.4941 18.7736,560.8742 18.7476,563.8014 C18.7217,566.7285 21.0244,569.1531 23.9054,569.2006 A0.5385,0.5385 0 0 0 23.9221,569.2006 L32.0432,569.2006 A0.5385,0.5385 0 0 0 32.0497,569.2006 C34.9436,569.1739 37.2676,566.747 37.2448,563.8074 C37.222,560.8801 34.8788,558.5018 32.0012,558.5021 L32.0012,558.5 L31.9656,558.5 M23.9978,559.5774 A0.5385,0.5385 0 0 0 24.0022,559.5774 L32.0009,559.5774 C34.2867,559.5775 36.1492,561.4551 36.1675,563.8158 C36.1859,566.1851 34.3403,568.1001 32.0432,568.1238 C32.0421,568.1239 32.04,568.1238 32.0389,568.1238 L23.9244,568.1238 C21.6357,568.086 19.8036,566.1727 19.8246,563.8119 C19.8456,561.4512 21.7088,559.5727 23.9978,559.5774" fill="#000000"/><text fill="#000000" font-family="sans-serif" font-size="14" lengthAdjust="spacing" textLength="140.9912" x="41.9117" y="569.2957">: application service</text><line style="stroke:#000000;stroke-width:1;" x1="12" x2="436.3672" y1="577.5975" y2="577.5975"/><line style="stroke:#000000;stroke-width:1;" x1="12" x2="436.3672" y1="579.5975" y2="579.5975"/><path d="M37.2031,587.5933 L21.2366,587.6439 A0.5385,0.5385 0 0 0 20.6985,588.1821 L20.6985,589.7303 L18.0189,589.7091 A0.5385,0.5385 0 0 0 17.4757,590.2478 L17.4757,592.332 A0.5385,0.5385 0 0 0 18.0144,592.8707 L20.6857,592.8707 L20.6601,593.9937 L17.9682,593.9726 A0.5385,0.5385 0 0 0 17.4256,594.5113 L17.4256,596.5954 A0.5385,0.5385 0 0 0 17.9638,597.1342 L20.6479,597.1342 L20.6479,600.367 A0.5385,0.5385 0 0 0 21.1866,600.9057 L37.2037,600.9558 A0.5385,0.5385 0 0 0 37.7441,600.4176 L37.7441,588.1321 A0.5385,0.5385 0 0 0 37.2037,587.5934 M36.6666,588.6724 L36.6666,599.8767 L21.7243,599.8305 L21.7243,597.1342 L24.4106,597.1342 A0.5385,0.5385 0 0 0 24.9487,596.5955 L24.9487,594.5619 A0.5385,0.5385 0 0 0 24.4145,594.0232 L21.737,594.0021 L21.7626,592.8707 L24.4607,592.8707 A0.5385,0.5385 0 0 0 24.9994,592.332 L24.9994,590.2979 A0.5385,0.5385 0 0 0 24.4651,589.7597 L21.775,589.7386 L21.775,588.7185 M18.5527,590.7905 L23.9226,590.8322 L23.9226,591.7939 L18.5527,591.7939 M18.5021,595.0539 L23.872,595.0962 L23.872,596.0573 L18.5021,596.0573" fill="#000000"/><text fill="#000000" font-family="sans-serif" font-size="14" lengthAdjust="spacing" textLength="170.0439" x="41.9117" y="599.7572">: application component</text></g><!--SRC=[fLLDZzf03BtFhnXjgwgj52fLwcL5aLAskt1W6nM94nUJ69Xkuebc9cnNRVzxFGdveYo2RIxWiVt6p_ROza5H3WOoQJ1sG9iKXyCLRc6dj1cDv2yX-JEwe6Ii3Q6H7p-9FyBcHZcKhrUHqJ5QAt-0kGOJRrK63Z-i2gk8ZuEyKZVsC4UpKp4Us4EUfoe6fpG5jh9eNSOwopKXkHDESMqZHCD3Nas04lwDKr3PbPHWvMGiXyCcwj6en_NLbttONOmnvAumAAUqrYOhRwkWnjDBeUwrK-kd9OL9eZmEf7Bku06tEatGs2kFUX_EBuLTGAeIJaZflxZKUqexj4vjQe2BMKNmL3f6PpaAhi3x8D6F5706kn8pxugBhj0pZ8JWt0T6RROkO73lwDFMdYp4eYDDHTSwwdN8F0OYHPkIWTqBdaZTg8T4mhRfUbrIMASpVXsGPAIiC_j6OTHuhmgJJBMgbzpXszWUkw5K_2z-P1Iv5x7d3iZyyppJKJHv3eey6FasU2P77ODZ52kjB_y9zUAKSYhgs2kPcwD9G-r-SD3ldniT5zv_IJCWs63rV_va7MPbRMvcvNjkXzY90jyXprT8bpJ-Fkk1iFmFoBCe4qwaV2F3H-1H4sasAKTEbtq9EWcZyEpGUg2tYe1YvICzXdjx1FUW0tnM1aK- -3rg7btth4wvyCJtPyTRH9GiQfCZXHPbE3LkLMmXKjmW9JB5jHDVVqAMCyUrqPbqMoOR-XLZ2yCaUNc0HMbTaV2KU_ijHxhZPPY_6uWvelZCd-XCFNbTRpvPRxwzIVCmvBNiB2vPRxlQh4tQWM6xuT0lDH__Nm00]--></g></svg>