<svg xmlns="http://www.w3.org/2000/svg" xmlns:xlink="http://www.w3.org/1999/xlink" contentStyleType="text/css" data-diagram-type="DESCRIPTION" height="313px" preserveAspectRatio="none" style="width:528px;height:313px;background:#FFFFFF;" version="1.1" viewBox="0 0 528 313" width="528px" zoomAndPan="magnify"><defs/><g><!--entity Root--><g class="entity" data-entity="Root" data-source-line="6" data-uid="ent0002" id="entity_Root"><rect fill="#F1F1F1" height="30" rx="2.5" ry="2.5" style="stroke:#181818;stroke-width:0.5;" width="20" x="195" y="7"/><text fill="#000000" font-family="sans-serif" font-size="14" lengthAdjust="spacing" textLength="0" x="205" y="17">ERC</text></g><!--entity Client--><g class="entity" data-entity="Client" data-source-line="7" data-uid="ent0003" id="entity_Client"><rect fill="#F1F1F1" height="30" rx="2.5" ry="2.5" style="stroke:#181818;stroke-width:0.5;" width="20" x="227" y="97"/><text fill="#000000" font-family="sans-serif" font-size="14" lengthAdjust="spacing" textLength="0" x="237" y="107">&#23458;&#25143;&#27169;&#22359;</text></g><!--entity Position--><g class="entity" data-entity="Position" data-source-line="8" data-uid="ent0004" id="entity_Position"><rect fill="#F1F1F1" height="30" rx="2.5" ry="2.5" style="stroke:#181818;stroke-width:0.5;" width="20" x="168" y="187"/><text fill="#000000" font-family="sans-serif" font-size="14" lengthAdjust="spacing" textLength="0" x="178" y="197">&#32844;&#20301;&#27169;&#22359;</text></g><!--entity COMMON_STYLE--><g class="entity" data-entity="COMMON_STYLE" data-source-line="10" data-uid="ent0005" id="entity_COMMON_STYLE"><rect fill="#F1F1F1" height="30" rx="2.5" ry="2.5" style="stroke:#181818;stroke-width:0.5;" width="20" x="58" y="187"/><text fill="#000000" font-family="sans-serif" font-size="14" lengthAdjust="spacing" textLength="0" x="68" y="197">&#20844;&#20849;&#26679;&#24335;&#25991;&#20214;(style.module.scss)</text></g><!--entity ClientForm--><g class="entity" data-entity="ClientForm" data-source-line="11" data-uid="ent0006" id="entity_ClientForm"><rect fill="#F1F1F1" height="30" rx="2.5" ry="2.5" style="stroke:#181818;stroke-width:0.5;" width="20" x="113" y="187"/><text fill="#000000" font-family="sans-serif" font-size="14" lengthAdjust="spacing" textLength="0" x="123" y="197">&#34920;&#21333;&#32452;&#20214;(ClientForm)</text></g><!--entity ClientList--><g class="entity" data-entity="ClientList" data-source-line="12" data-uid="ent0007" id="entity_ClientList"><rect fill="#F1F1F1" height="30" rx="2.5" ry="2.5" style="stroke:#181818;stroke-width:0.5;" width="20" x="392" y="187"/><text fill="#000000" font-family="sans-serif" font-size="14" lengthAdjust="spacing" textLength="0" x="402" y="197">&#21015;&#34920;&#32452;&#20214;(ClientList)</text></g><!--entity ClientDetail--><g class="entity" data-entity="ClientDetail" data-source-line="13" data-uid="ent0008" id="entity_ClientDetail"><rect fill="#F1F1F1" height="30" rx="2.5" ry="2.5" style="stroke:#181818;stroke-width:0.5;" width="20" x="227" y="187"/><text fill="#000000" font-family="sans-serif" font-size="14" lengthAdjust="spacing" textLength="0" x="237" y="197">&#35814;&#24773;&#32452;&#20214;(ClientDetail)</text></g><!--entity ClientBaseForm--><g class="entity" data-entity="ClientBaseForm" data-source-line="15" data-uid="ent0009" id="entity_ClientBaseForm"><rect fill="#F1F1F1" height="30" rx="2.5" ry="2.5" style="stroke:#181818;stroke-width:0.5;" width="20" x="7" y="277"/><text fill="#000000" font-family="sans-serif" font-size="14" lengthAdjust="spacing" textLength="0" x="17" y="287">&#23458;&#25143;&#34920;&#21333;&#32452;&#20214;(ClientBaseForm)</text></g><!--entity PositionForm--><g class="entity" data-entity="PositionForm" data-source-line="16" data-uid="ent0010" id="entity_PositionForm"><rect fill="#F1F1F1" height="30" rx="2.5" ry="2.5" style="stroke:#181818;stroke-width:0.5;" width="20" x="117" y="277"/><text fill="#000000" font-family="sans-serif" font-size="14" lengthAdjust="spacing" textLength="0" x="127" y="287">&#32844;&#20301;&#34920;&#21333;&#32452;&#20214;(PositionForm)</text></g><!--entity ContactsForm--><g class="entity" data-entity="ContactsForm" data-source-line="17" data-uid="ent0011" id="entity_ContactsForm"><rect fill="#F1F1F1" height="30" rx="2.5" ry="2.5" style="stroke:#181818;stroke-width:0.5;" width="20" x="62" y="277"/><text fill="#000000" font-family="sans-serif" font-size="14" lengthAdjust="spacing" textLength="0" x="72" y="287">&#32852;&#31995;&#20154;&#34920;&#21333;&#32452;&#20214;(ContactsForm)</text></g><!--entity ClientFilter--><g class="entity" data-entity="ClientFilter" data-source-line="19" data-uid="ent0012" id="entity_ClientFilter"><rect fill="#F1F1F1" height="30" rx="2.5" ry="2.5" style="stroke:#181818;stroke-width:0.5;" width="20" x="337" y="277"/><text fill="#000000" font-family="sans-serif" font-size="14" lengthAdjust="spacing" textLength="0" x="347" y="287">&#21015;&#34920;&#31579;&#36873;&#32452;&#20214;(ClientFilter)</text></g><!--entity clientColumns--><g class="entity" data-entity="clientColumns" data-source-line="20" data-uid="ent0013" id="entity_clientColumns"><rect fill="#F1F1F1" height="30" rx="2.5" ry="2.5" style="stroke:#181818;stroke-width:0.5;" width="20" x="392" y="277"/><text fill="#000000" font-family="sans-serif" font-size="14" lengthAdjust="spacing" textLength="0" x="402" y="287">&#21015;&#34920;&#21015;&#37197;&#32622;(clientColumns)</text></g><!--entity ClientStatus--><g class="entity" data-entity="ClientStatus" data-source-line="21" data-uid="ent0014" id="entity_ClientStatus"><rect fill="#F1F1F1" height="30" rx="2.5" ry="2.5" style="stroke:#181818;stroke-width:0.5;" width="20" x="447" y="277"/><text fill="#000000" font-family="sans-serif" font-size="14" lengthAdjust="spacing" textLength="0" x="457" y="287">&#21015;&#34920;&#29366;&#24577;&#32452;&#20214;(ClientStatus)</text></g><!--entity ClientOptions--><g class="entity" data-entity="ClientOptions" data-source-line="22" data-uid="ent0015" id="entity_ClientOptions"><rect fill="#F1F1F1" height="30" rx="2.5" ry="2.5" style="stroke:#181818;stroke-width:0.5;" width="20" x="502" y="277"/><text fill="#000000" font-family="sans-serif" font-size="14" lengthAdjust="spacing" textLength="0" x="512" y="287">&#21015;&#34920;&#25805;&#20316;&#32452;&#20214;(ClientOptions)</text></g><!--entity ClientDetailHead--><g class="entity" data-entity="ClientDetailHead" data-source-line="24" data-uid="ent0016" id="entity_ClientDetailHead"><rect fill="#F1F1F1" height="30" rx="2.5" ry="2.5" style="stroke:#181818;stroke-width:0.5;" width="20" x="227" y="277"/><text fill="#000000" font-family="sans-serif" font-size="14" lengthAdjust="spacing" textLength="0" x="237" y="287">&#35814;&#24773;Head&#32452;&#20214;(ClientDetailHead)</text></g><!--entity ClientDetailBase--><g class="entity" data-entity="ClientDetailBase" data-source-line="25" data-uid="ent0017" id="entity_ClientDetailBase"><rect fill="#F1F1F1" height="30" rx="2.5" ry="2.5" style="stroke:#181818;stroke-width:0.5;" width="20" x="282" y="277"/><text fill="#000000" font-family="sans-serif" font-size="14" lengthAdjust="spacing" textLength="0" x="292" y="287">&#35814;&#24773;&#22522;&#26412;&#20449;&#24687;(ClientDetailBase)</text></g><!--entity PositionDetail--><g class="entity" data-entity="PositionDetail" data-source-line="26" data-uid="ent0018" id="entity_PositionDetail"><rect fill="#F1F1F1" height="30" rx="2.5" ry="2.5" style="stroke:#181818;stroke-width:0.5;" width="20" x="172" y="277"/><text fill="#000000" font-family="sans-serif" font-size="14" lengthAdjust="spacing" textLength="0" x="182" y="287">&#32844;&#20301;&#35814;&#24773;(PositionDetail)</text></g><!--link Root to Client--><g class="link" data-entity-1="Root" data-entity-2="Client" data-source-line="28" data-uid="lnk19" id="link_Root_Client"><path d="M210.14,37.14 C216.08,53.46 223.0539,72.6525 229.0339,89.0825" fill="none" id="Root-to-Client" style="stroke:#181818;stroke-width:1;"/><polygon fill="#181818" points="231.77,96.6,231.8529,88.0564,226.2148,90.1085,231.77,96.6" style="stroke:#181818;stroke-width:1;"/></g><!--link Root to Position--><g class="link" data-entity-1="Root" data-entity-2="Position" data-source-line="29" data-uid="lnk20" id="link_Root_Position"><path d="M202.84,37.27 C197.78,70.59 186.4406,145.3606 181.3706,178.7606" fill="none" id="Root-to-Position" style="stroke:#181818;stroke-width:1;"/><polygon fill="#181818" points="180.17,186.67,184.3366,179.2108,178.4046,178.3104,180.17,186.67" style="stroke:#181818;stroke-width:1;"/></g><!--link Client to COMMON_STYLE--><g class="link" data-entity-1="Client" data-entity-2="COMMON_STYLE" data-source-line="31" data-uid="lnk21" id="link_Client_COMMON_STYLE"><path d="M226.68,118.37 C196.44,134.12 115.3455,176.3448 85.2755,192.0048" fill="none" id="Client-to-COMMON_STYLE" style="stroke:#181818;stroke-width:1;"/><polygon fill="#181818" points="78.18,195.7,86.6612,194.6656,83.8898,189.344,78.18,195.7" style="stroke:#181818;stroke-width:1;"/></g><!--link Client to ClientForm--><g class="link" data-entity-1="Client" data-entity-2="ClientForm" data-source-line="32" data-uid="lnk22" id="link_Client_ClientForm"><path d="M226.88,120.81 C205.3,137.47 161.2928,171.4417 139.5928,188.1917" fill="none" id="Client-to-ClientForm" style="stroke:#181818;stroke-width:1;"/><polygon fill="#181818" points="133.26,193.08,141.4259,190.5666,137.7598,185.8169,133.26,193.08" style="stroke:#181818;stroke-width:1;"/></g><!--link Client to ClientList--><g class="link" data-entity-1="Client" data-entity-2="ClientList" data-source-line="33" data-uid="lnk23" id="link_Client_ClientList"><path d="M247.32,118.5 C276.95,134.31 355.0014,175.9348 384.6214,191.7348" fill="none" id="Client-to-ClientList" style="stroke:#181818;stroke-width:1;"/><polygon fill="#181818" points="391.68,195.5,386.0334,189.0878,383.2095,194.3818,391.68,195.5" style="stroke:#181818;stroke-width:1;"/></g><!--link Client to ClientDetail--><g class="link" data-entity-1="Client" data-entity-2="ClientDetail" data-source-line="34" data-uid="lnk24" id="link_Client_ClientDetail"><path d="M237,127.14 C237,143.46 237,162.17 237,178.6" fill="none" id="Client-to-ClientDetail" style="stroke:#181818;stroke-width:1;"/><polygon fill="#181818" points="237,186.6,240,178.6,234,178.6,237,186.6" style="stroke:#181818;stroke-width:1;"/></g><!--link Position to PositionDetail--><g class="link" data-entity-1="Position" data-entity-2="PositionDetail" data-source-line="36" data-uid="lnk25" id="link_Position_PositionDetail"><path d="M178.64,217.14 C179.38,233.46 180.2352,252.1783 180.9852,268.6083" fill="none" id="Position-to-PositionDetail" style="stroke:#181818;stroke-width:1;"/><polygon fill="#181818" points="181.35,276.6,183.9821,268.4715,177.9883,268.7451,181.35,276.6" style="stroke:#181818;stroke-width:1;"/></g><!--link Position to PositionForm--><g class="link" data-entity-1="Position" data-entity-2="PositionForm" data-source-line="37" data-uid="lnk26" id="link_Position_PositionForm"><path d="M169.81,217.14 C160.35,233.46 148.8839,253.2499 139.3539,269.6799" fill="none" id="Position-to-PositionForm" style="stroke:#181818;stroke-width:1;"/><polygon fill="#181818" points="135.34,276.6,141.949,271.1851,136.7589,268.1746,135.34,276.6" style="stroke:#181818;stroke-width:1;"/></g><!--link ClientForm to ClientBaseForm--><g class="link" data-entity-1="ClientForm" data-entity-2="ClientBaseForm" data-source-line="39" data-uid="lnk27" id="link_ClientForm_ClientBaseForm"><path d="M112.84,211.44 C92.63,228.22 53.7554,260.4902 33.4454,277.3502" fill="none" id="ClientForm-to-ClientBaseForm" style="stroke:#181818;stroke-width:1;"/><polygon fill="#181818" points="27.29,282.46,35.3616,279.6585,31.5293,275.0419,27.29,282.46" style="stroke:#181818;stroke-width:1;"/></g><!--link ClientForm to PositionForm--><g class="link" data-entity-1="ClientForm" data-entity-2="PositionForm" data-source-line="40" data-uid="lnk28" id="link_ClientForm_PositionForm"><path d="M123.64,217.14 C124.38,233.46 125.2352,252.1783 125.9852,268.6083" fill="none" id="ClientForm-to-PositionForm" style="stroke:#181818;stroke-width:1;"/><polygon fill="#181818" points="126.35,276.6,128.9821,268.4715,122.9883,268.7451,126.35,276.6" style="stroke:#181818;stroke-width:1;"/></g><!--link ClientForm to ContactsForm--><g class="link" data-entity-1="ClientForm" data-entity-2="ContactsForm" data-source-line="41" data-uid="lnk29" id="link_ClientForm_ContactsForm"><path d="M114.81,217.14 C105.35,233.46 93.8839,253.2499 84.3539,269.6799" fill="none" id="ClientForm-to-ContactsForm" style="stroke:#181818;stroke-width:1;"/><polygon fill="#181818" points="80.34,276.6,86.949,271.1851,81.7589,268.1746,80.34,276.6" style="stroke:#181818;stroke-width:1;"/></g><!--link ClientList to ClientFilter--><g class="link" data-entity-1="ClientList" data-entity-2="ClientFilter" data-source-line="43" data-uid="lnk30" id="link_ClientList_ClientFilter"><path d="M393.16,217.14 C382.96,233.46 370.5104,253.3862 360.2404,269.8162" fill="none" id="ClientList-to-ClientFilter" style="stroke:#181818;stroke-width:1;"/><polygon fill="#181818" points="356,276.6,362.7843,271.4064,357.6965,268.2261,356,276.6" style="stroke:#181818;stroke-width:1;"/></g><!--link ClientList to clientColumns--><g class="link" data-entity-1="ClientList" data-entity-2="clientColumns" data-source-line="44" data-uid="lnk31" id="link_ClientList_clientColumns"><path d="M402,217.14 C402,233.46 402,252.17 402,268.6" fill="none" id="ClientList-to-clientColumns" style="stroke:#181818;stroke-width:1;"/><polygon fill="#181818" points="402,276.6,405,268.6,399,268.6,402,276.6" style="stroke:#181818;stroke-width:1;"/></g><!--link ClientList to ClientStatus--><g class="link" data-entity-1="ClientList" data-entity-2="ClientStatus" data-source-line="45" data-uid="lnk32" id="link_ClientList_ClientStatus"><path d="M410.84,217.14 C421.04,233.46 433.4896,253.3862 443.7596,269.8162" fill="none" id="ClientList-to-ClientStatus" style="stroke:#181818;stroke-width:1;"/><polygon fill="#181818" points="448,276.6,446.3035,268.2261,441.2157,271.4064,448,276.6" style="stroke:#181818;stroke-width:1;"/></g><!--link ClientList to ClientOptions--><g class="link" data-entity-1="ClientList" data-entity-2="ClientOptions" data-source-line="46" data-uid="lnk33" id="link_ClientList_ClientOptions"><path d="M412.15,211.12 C433,227.8 474.203,260.7624 495.303,277.6424" fill="none" id="ClientList-to-ClientOptions" style="stroke:#181818;stroke-width:1;"/><polygon fill="#181818" points="501.55,282.64,497.1771,275.2998,493.429,279.985,501.55,282.64" style="stroke:#181818;stroke-width:1;"/></g><!--link ClientDetail to ClientDetailHead--><g class="link" data-entity-1="ClientDetail" data-entity-2="ClientDetailHead" data-source-line="48" data-uid="lnk34" id="link_ClientDetail_ClientDetailHead"><path d="M237,217.14 C237,233.46 237,252.17 237,268.6" fill="none" id="ClientDetail-to-ClientDetailHead" style="stroke:#181818;stroke-width:1;"/><polygon fill="#181818" points="237,276.6,240,268.6,234,268.6,237,276.6" style="stroke:#181818;stroke-width:1;"/></g><!--link ClientDetail to ClientDetailBase--><g class="link" data-entity-1="ClientDetail" data-entity-2="ClientDetailBase" data-source-line="49" data-uid="lnk35" id="link_ClientDetail_ClientDetailBase"><path d="M245.84,217.14 C256.04,233.46 268.4896,253.3862 278.7596,269.8162" fill="none" id="ClientDetail-to-ClientDetailBase" style="stroke:#181818;stroke-width:1;"/><polygon fill="#181818" points="283,276.6,281.3035,268.2261,276.2157,271.4064,283,276.6" style="stroke:#181818;stroke-width:1;"/></g><!--link ClientDetail to PositionDetail--><g class="link" data-entity-1="ClientDetail" data-entity-2="PositionDetail" data-source-line="50" data-uid="lnk36" id="link_ClientDetail_PositionDetail"><path d="M228.16,217.14 C217.96,233.46 205.5104,253.3862 195.2404,269.8162" fill="none" id="ClientDetail-to-PositionDetail" style="stroke:#181818;stroke-width:1;"/><polygon fill="#181818" points="191,276.6,197.7843,271.4064,192.6965,268.2261,191,276.6" style="stroke:#181818;stroke-width:1;"/></g><!--SRC=[XLExJXj15EtdAqQke802YGvHn11H08uWJIeqsAEmOZs3TiQWA8g45In8X4N1mmKWS8g8WeSG4aWsLdvcTmn_aNrvToup5YxMsdFFkUVkVOXrXsqGZrInHykIiAykdPfQfMjaq-7Uz3J-Zd3uytYDLOhSOzJ34vFe1q8ee-F2x5AnW34HU8bpgGU2spzgxqbTjOFpLi8ekWvbWFDIt_TxJPtpYGj7Efm1Zw1n7JJkrULJy7oWJdRzxkE8aDzSEbxbbLhu9yf2Z1PYYzB2GcbnPVdpb_bPODI-2fh7_UvEf4tg-CYzQYhAte7fNYjK0Scy8wGkYTw1ozrVzRC193DK4iVLHGc2p5PPQln017rRvm0p-mWI31gPotK4Ye_w3rs_qu45S2P9MGhDNaEGfLCtfw_Rls2B7LTI3pGvHann-7njDFkzsv5op2jojrPbwL01P37-_QYswy1uMH9P4xfnWfXYTTZqUsT0NDg8kWJKAOJCOSzHKh4CF8BDeKUecIAuwAYpQ_zVMzNlG99eqcQI2BNCFawLJLrVEuWX51qg7glmBJOMtdXwb13Chp09QtJzm8nWVaZsK7mmzj2Wke6rMKpA64v85ZClugr5TZas2aXYpG7MF_yUu_EJ5RSHu28FJv4kwt12jezwx-mTZNVkVLgyLNOQxFz_]--></g></svg>