<svg xmlns="http://www.w3.org/2000/svg" xmlns:xlink="http://www.w3.org/1999/xlink" contentStyleType="text/css" data-diagram-type="EBNF" height="1608px" preserveAspectRatio="none" style="width:369px;height:1608px;background:#FFFFFF;" version="1.1" viewBox="0 0 369 1608" width="369px" zoomAndPan="magnify"><title>All EBNF elements managed by PlantUML</title><defs/><g><g class="title" data-source-line="1"><text fill="#000000" font-family="sans-serif" font-size="14" font-weight="bold" lengthAdjust="spacing" textLength="326.7031" x="20" y="32.9951">All EBNF elements managed by PlantUML</text></g><path d="M45.0474,52.2969 L45.0474,77.4297 L115.0132,77.4297 L115.0132,62.2969 L105.0132,52.2969 L45.0474,52.2969" fill="#FEFFDD" style="stroke:#181818;stroke-width:0.5;"/><path d="M105.0132,52.2969 L105.0132,62.2969 L115.0132,62.2969 L105.0132,52.2969" fill="#FEFFDD" style="stroke:#181818;stroke-width:0.5;"/><text fill="#000000" font-family="sans-serif" font-size="13" lengthAdjust="spacing" textLength="40.7012" x="55.1797" y="69.3638">Nodes</text><text fill="#000000" font-family="sans-serif" font-size="14" font-weight="bold" lengthAdjust="spacing" textLength="53.6279" x="45.0474" y="105.4248">litteral</text><rect fill="none" height="26.2969" style="stroke:#181818;stroke-width:0.5;" width="18.5791" x="75.0474" y="118.7266"/><text fill="#000000" font-family="sans-serif" font-size="14" lengthAdjust="spacing" textLength="8.5791" x="80.0474" y="136.7217">a</text><ellipse cx="49.0474" cy="131.875" fill="none" rx="4" ry="4" style="stroke:#181818;stroke-width:2;"/><ellipse cx="123.6265" cy="131.875" fill="#181818" rx="4" ry="4" style="stroke:#181818;stroke-width:1;"/><line style="stroke:#181818;stroke-width:1.5;" x1="53.0474" x2="75.0474" y1="131.875" y2="131.875"/><line style="stroke:#181818;stroke-width:1.5;" x1="93.6265" x2="119.6265" y1="131.875" y2="131.875"/><path d="M104.6265,131.875 L104.6265,128.875 L110.6265,131.875 L104.6265,134.875 L104.6265,131.875" fill="#181818"/><text fill="#000000" font-family="sans-serif" font-size="14" font-weight="bold" lengthAdjust="spacing" textLength="55.1934" x="45.0474" y="173.0186">special</text><rect fill="none" height="26.2969" style="stroke:#181818;stroke-width:1;stroke-dasharray:5,5;" width="27.4795" x="75.0474" y="186.3203"/><text fill="#000000" font-family="sans-serif" font-size="14" lengthAdjust="spacing" textLength="8.5791" x="84.4976" y="204.3154">a</text><ellipse cx="49.0474" cy="199.4688" fill="none" rx="4" ry="4" style="stroke:#181818;stroke-width:2;"/><ellipse cx="132.5269" cy="199.4688" fill="#181818" rx="4" ry="4" style="stroke:#181818;stroke-width:1;"/><line style="stroke:#181818;stroke-width:1.5;" x1="53.0474" x2="75.0474" y1="199.4688" y2="199.4688"/><line style="stroke:#181818;stroke-width:1.5;" x1="102.5269" x2="128.5269" y1="199.4688" y2="199.4688"/><path d="M113.5269,199.4688 L113.5269,196.4688 L119.5269,199.4688 L113.5269,202.4688 L113.5269,199.4688" fill="#181818"/><text fill="#000000" font-family="sans-serif" font-size="14" font-weight="bold" lengthAdjust="spacing" textLength="31.165" x="45.0474" y="240.6123">rule</text><rect fill="#F1F1F1" height="26.2969" rx="5" ry="5" style="stroke:#181818;stroke-width:1.5;" width="18.5791" x="75.0474" y="253.9141"/><text fill="#000000" font-family="sans-serif" font-size="14" lengthAdjust="spacing" textLength="8.5791" x="80.0474" y="271.9092">a</text><ellipse cx="49.0474" cy="267.0625" fill="none" rx="4" ry="4" style="stroke:#181818;stroke-width:2;"/><ellipse cx="123.6265" cy="267.0625" fill="#181818" rx="4" ry="4" style="stroke:#181818;stroke-width:1;"/><line style="stroke:#181818;stroke-width:1.5;" x1="53.0474" x2="75.0474" y1="267.0625" y2="267.0625"/><line style="stroke:#181818;stroke-width:1.5;" x1="93.6265" x2="119.6265" y1="267.0625" y2="267.0625"/><path d="M104.6265,267.0625 L104.6265,264.0625 L110.6265,267.0625 L104.6265,270.0625 L104.6265,267.0625" fill="#181818"/><path d="M45.0474,300.2109 L45.0474,325.3438 L113.8008,325.3438 L113.8008,310.2109 L103.8008,300.2109 L45.0474,300.2109" fill="#FEFFDD" style="stroke:#181818;stroke-width:0.5;"/><path d="M103.8008,300.2109 L103.8008,310.2109 L113.8008,310.2109 L103.8008,300.2109" fill="#FEFFDD" style="stroke:#181818;stroke-width:0.5;"/><text fill="#000000" font-family="sans-serif" font-size="13" lengthAdjust="spacing" textLength="39.4888" x="55.1797" y="317.2778">Edges</text><text fill="#000000" font-family="sans-serif" font-size="14" font-weight="bold" lengthAdjust="spacing" textLength="67.6074" x="45.0474" y="353.3389">required</text><rect fill="#F1F1F1" height="26.2969" rx="5" ry="5" style="stroke:#181818;stroke-width:1.5;" width="18.5791" x="75.0474" y="366.6406"/><text fill="#000000" font-family="sans-serif" font-size="14" lengthAdjust="spacing" textLength="8.5791" x="80.0474" y="384.6357">a</text><ellipse cx="49.0474" cy="379.7891" fill="none" rx="4" ry="4" style="stroke:#181818;stroke-width:2;"/><ellipse cx="123.6265" cy="379.7891" fill="#181818" rx="4" ry="4" style="stroke:#181818;stroke-width:1;"/><line style="stroke:#181818;stroke-width:1.5;" x1="53.0474" x2="75.0474" y1="379.7891" y2="379.7891"/><line style="stroke:#181818;stroke-width:1.5;" x1="93.6265" x2="119.6265" y1="379.7891" y2="379.7891"/><path d="M104.6265,379.7891 L104.6265,376.7891 L110.6265,379.7891 L104.6265,382.7891 L104.6265,379.7891" fill="#181818"/><text fill="#000000" font-family="sans-serif" font-size="14" font-weight="bold" lengthAdjust="spacing" textLength="64.9619" x="45.0474" y="420.9326">optional</text><line style="stroke:#181818;stroke-width:1.5;" x1="75.0474" x2="141.6265" y1="444.2344" y2="444.2344"/><path d="M99.679,444.2344 L99.679,441.2344 L105.679,444.2344 L99.679,447.2344 L99.679,444.2344" fill="#181818"/><path d="M75.0474,444.2344 C84.0474,444.2344 87.0474,446.8086 87.0474,455.8086 C87.0474,464.8086 90.0474,467.3828 99.0474,467.3828" fill="none" style="stroke:#181818;stroke-width:1.5;"/><path d="M117.6265,467.3828 C126.6265,467.3828 129.6265,464.8086 129.6265,455.8086 C129.6265,446.8086 132.6265,444.2344 141.6265,444.2344" fill="none" style="stroke:#181818;stroke-width:1.5;"/><rect fill="#F1F1F1" height="26.2969" rx="5" ry="5" style="stroke:#181818;stroke-width:1.5;" width="18.5791" x="99.0474" y="454.2344"/><text fill="#000000" font-family="sans-serif" font-size="14" lengthAdjust="spacing" textLength="8.5791" x="104.0474" y="472.2295">a</text><ellipse cx="49.0474" cy="444.2344" fill="none" rx="4" ry="4" style="stroke:#181818;stroke-width:2;"/><ellipse cx="171.6265" cy="444.2344" fill="#181818" rx="4" ry="4" style="stroke:#181818;stroke-width:1;"/><line style="stroke:#181818;stroke-width:1.5;" x1="53.0474" x2="75.0474" y1="444.2344" y2="444.2344"/><line style="stroke:#181818;stroke-width:1.5;" x1="141.6265" x2="167.6265" y1="444.2344" y2="444.2344"/><path d="M152.6265,444.2344 L152.6265,441.2344 L158.6265,444.2344 L152.6265,447.2344 L152.6265,444.2344" fill="#181818"/><text fill="#000000" font-family="sans-serif" font-size="14" font-weight="bold" lengthAdjust="spacing" textLength="105.2939" x="45.0474" y="508.5264">zero_or_more</text><line style="stroke:#181818;stroke-width:1.5;" x1="75.0474" x2="171.6265" y1="531.8281" y2="531.8281"/><path d="M111.679,531.8281 L111.679,528.8281 L117.679,531.8281 L111.679,534.8281 L111.679,531.8281" fill="#181818"/><path d="M75.0474,531.8281 C84.0474,531.8281 87.0474,540.4023 87.0474,549.4023 C87.0474,558.4023 90.0474,566.9766 99.0474,566.9766" fill="none" style="stroke:#181818;stroke-width:1.5;"/><path d="M147.6265,566.9766 C156.6265,566.9766 159.6265,558.4023 159.6265,549.4023 C159.6265,540.4023 162.6265,531.8281 171.6265,531.8281" fill="none" style="stroke:#181818;stroke-width:1.5;"/><path d="M107.0474,558.9766 C107.0474,564.9766 109.0474,566.9766 115.0474,566.9766" fill="none" style="stroke:#181818;stroke-width:1.5;"/><line style="stroke:#181818;stroke-width:1.5;" x1="107.0474" x2="107.0474" y1="554.8281" y2="558.9766"/><path d="M107.0474,554.8281 C107.0474,548.8281 109.0474,546.8281 115.0474,546.8281" fill="none" style="stroke:#181818;stroke-width:1.5;"/><line style="stroke:#181818;stroke-width:1.5;" x1="114.0474" x2="132.6265" y1="546.8281" y2="546.8281"/><path d="M123.1948,546.8281 L123.1948,543.8281 L117.1948,546.8281 L123.1948,549.8281 L123.1948,546.8281" fill="#181818"/><path d="M139.6265,558.9766 C139.6265,564.9766 137.6265,566.9766 131.6265,566.9766" fill="none" style="stroke:#181818;stroke-width:1.5;"/><line style="stroke:#181818;stroke-width:1.5;" x1="139.6265" x2="139.6265" y1="554.8281" y2="558.9766"/><path d="M131.6265,546.8281 C137.6265,546.8281 139.6265,548.8281 139.6265,554.8281" fill="none" style="stroke:#181818;stroke-width:1.5;"/><line style="stroke:#181818;stroke-width:1.5;" x1="99.0474" x2="114.0474" y1="566.9766" y2="566.9766"/><line style="stroke:#181818;stroke-width:1.5;" x1="132.6265" x2="147.6265" y1="566.9766" y2="566.9766"/><rect fill="#F1F1F1" height="26.2969" rx="5" ry="5" style="stroke:#181818;stroke-width:1.5;" width="18.5791" x="114.0474" y="553.8281"/><text fill="#000000" font-family="sans-serif" font-size="14" lengthAdjust="spacing" textLength="8.5791" x="119.0474" y="571.8232">a</text><ellipse cx="49.0474" cy="531.8281" fill="none" rx="4" ry="4" style="stroke:#181818;stroke-width:2;"/><ellipse cx="201.6265" cy="531.8281" fill="#181818" rx="4" ry="4" style="stroke:#181818;stroke-width:1;"/><line style="stroke:#181818;stroke-width:1.5;" x1="53.0474" x2="75.0474" y1="531.8281" y2="531.8281"/><line style="stroke:#181818;stroke-width:1.5;" x1="171.6265" x2="197.6265" y1="531.8281" y2="531.8281"/><path d="M182.6265,531.8281 L182.6265,528.8281 L188.6265,531.8281 L182.6265,534.8281 L182.6265,531.8281" fill="#181818"/><text fill="#000000" font-family="sans-serif" font-size="14" font-weight="bold" lengthAdjust="spacing" textLength="100.208" x="45.0474" y="608.1201">one_or_more</text><line style="stroke:#181818;stroke-width:1.5;" x1="75.0474" x2="75.0474" y1="634.5703" y2="634.5703"/><rect fill="#F1F1F1" height="26.2969" rx="5" ry="5" style="stroke:#181818;stroke-width:1.5;" width="18.5791" x="75.0474" y="621.4219"/><text fill="#000000" font-family="sans-serif" font-size="14" lengthAdjust="spacing" textLength="8.5791" x="80.0474" y="639.417">a</text><line style="stroke:#181818;stroke-width:1.5;" x1="93.6265" x2="113.6265" y1="634.5703" y2="634.5703"/><line style="stroke:#181818;stroke-width:1.5;" x1="113.6265" x2="210.2056" y1="634.5703" y2="634.5703"/><path d="M150.2581,634.5703 L150.2581,631.5703 L156.2581,634.5703 L150.2581,637.5703 L150.2581,634.5703" fill="#181818"/><path d="M113.6265,634.5703 C122.6265,634.5703 125.6265,643.1445 125.6265,652.1445 C125.6265,661.1445 128.6265,669.7188 137.6265,669.7188" fill="none" style="stroke:#181818;stroke-width:1.5;"/><path d="M186.2056,669.7188 C195.2056,669.7188 198.2056,661.1445 198.2056,652.1445 C198.2056,643.1445 201.2056,634.5703 210.2056,634.5703" fill="none" style="stroke:#181818;stroke-width:1.5;"/><path d="M145.6265,661.7188 C145.6265,667.7188 147.6265,669.7188 153.6265,669.7188" fill="none" style="stroke:#181818;stroke-width:1.5;"/><line style="stroke:#181818;stroke-width:1.5;" x1="145.6265" x2="145.6265" y1="657.5703" y2="661.7188"/><path d="M145.6265,657.5703 C145.6265,651.5703 147.6265,649.5703 153.6265,649.5703" fill="none" style="stroke:#181818;stroke-width:1.5;"/><line style="stroke:#181818;stroke-width:1.5;" x1="152.6265" x2="171.2056" y1="649.5703" y2="649.5703"/><path d="M161.7739,649.5703 L161.7739,646.5703 L155.7739,649.5703 L161.7739,652.5703 L161.7739,649.5703" fill="#181818"/><path d="M178.2056,661.7188 C178.2056,667.7188 176.2056,669.7188 170.2056,669.7188" fill="none" style="stroke:#181818;stroke-width:1.5;"/><line style="stroke:#181818;stroke-width:1.5;" x1="178.2056" x2="178.2056" y1="657.5703" y2="661.7188"/><path d="M170.2056,649.5703 C176.2056,649.5703 178.2056,651.5703 178.2056,657.5703" fill="none" style="stroke:#181818;stroke-width:1.5;"/><line style="stroke:#181818;stroke-width:1.5;" x1="137.6265" x2="152.6265" y1="669.7188" y2="669.7188"/><line style="stroke:#181818;stroke-width:1.5;" x1="171.2056" x2="186.2056" y1="669.7188" y2="669.7188"/><rect fill="#F1F1F1" height="26.2969" rx="5" ry="5" style="stroke:#181818;stroke-width:1.5;" width="18.5791" x="152.6265" y="656.5703"/><text fill="#000000" font-family="sans-serif" font-size="14" lengthAdjust="spacing" textLength="8.5791" x="157.6265" y="674.5654">a</text><ellipse cx="49.0474" cy="634.5703" fill="none" rx="4" ry="4" style="stroke:#181818;stroke-width:2;"/><ellipse cx="240.2056" cy="634.5703" fill="#181818" rx="4" ry="4" style="stroke:#181818;stroke-width:1;"/><line style="stroke:#181818;stroke-width:1.5;" x1="53.0474" x2="75.0474" y1="634.5703" y2="634.5703"/><line style="stroke:#181818;stroke-width:1.5;" x1="210.2056" x2="236.2056" y1="634.5703" y2="634.5703"/><path d="M221.2056,634.5703 L221.2056,631.5703 L227.2056,634.5703 L221.2056,637.5703 L221.2056,634.5703" fill="#181818"/><text fill="#000000" font-family="sans-serif" font-size="14" font-weight="bold" lengthAdjust="spacing" textLength="142.7822" x="45.0474" y="710.8623">one_or_more_ebnf</text><path d="M83.0474,741.3125 C83.0474,747.3125 85.0474,749.3125 91.0474,749.3125" fill="none" style="stroke:#181818;stroke-width:1.5;"/><line style="stroke:#181818;stroke-width:1.5;" x1="83.0474" x2="83.0474" y1="737.1641" y2="741.3125"/><path d="M83.0474,737.1641 C83.0474,731.1641 85.0474,729.1641 91.0474,729.1641" fill="none" style="stroke:#181818;stroke-width:1.5;"/><line style="stroke:#181818;stroke-width:1.5;" x1="90.0474" x2="108.6265" y1="729.1641" y2="729.1641"/><path d="M99.1948,729.1641 L99.1948,726.1641 L93.1948,729.1641 L99.1948,732.1641 L99.1948,729.1641" fill="#181818"/><path d="M115.6265,741.3125 C115.6265,747.3125 113.6265,749.3125 107.6265,749.3125" fill="none" style="stroke:#181818;stroke-width:1.5;"/><line style="stroke:#181818;stroke-width:1.5;" x1="115.6265" x2="115.6265" y1="737.1641" y2="741.3125"/><path d="M107.6265,729.1641 C113.6265,729.1641 115.6265,731.1641 115.6265,737.1641" fill="none" style="stroke:#181818;stroke-width:1.5;"/><line style="stroke:#181818;stroke-width:1.5;" x1="75.0474" x2="90.0474" y1="749.3125" y2="749.3125"/><line style="stroke:#181818;stroke-width:1.5;" x1="108.6265" x2="123.6265" y1="749.3125" y2="749.3125"/><rect fill="#F1F1F1" height="26.2969" rx="5" ry="5" style="stroke:#181818;stroke-width:1.5;" width="18.5791" x="90.0474" y="736.1641"/><text fill="#000000" font-family="sans-serif" font-size="14" lengthAdjust="spacing" textLength="8.5791" x="95.0474" y="754.1592">a</text><ellipse cx="49.0474" cy="749.3125" fill="none" rx="4" ry="4" style="stroke:#181818;stroke-width:2;"/><ellipse cx="153.6265" cy="749.3125" fill="#181818" rx="4" ry="4" style="stroke:#181818;stroke-width:1;"/><line style="stroke:#181818;stroke-width:1.5;" x1="53.0474" x2="75.0474" y1="749.3125" y2="749.3125"/><line style="stroke:#181818;stroke-width:1.5;" x1="123.6265" x2="149.6265" y1="749.3125" y2="749.3125"/><path d="M134.6265,749.3125 L134.6265,746.3125 L140.6265,749.3125 L134.6265,752.3125 L134.6265,749.3125" fill="#181818"/><text fill="#000000" font-family="sans-serif" font-size="14" font-weight="bold" lengthAdjust="spacing" textLength="230.5488" x="45.0474" y="790.4561">zero_or_more_with_separator</text><line style="stroke:#181818;stroke-width:1.5;" x1="75.0474" x2="292.6558" y1="813.7578" y2="813.7578"/><path d="M160.0907,813.7578 L160.0907,810.7578 L166.0907,813.7578 L160.0907,816.7578 L160.0907,813.7578" fill="#181818"/><path d="M75.0474,813.7578 C84.0474,813.7578 87.0474,816.332 87.0474,825.332 C87.0474,834.332 90.0474,836.9063 99.0474,836.9063" fill="none" style="stroke:#181818;stroke-width:1.5;"/><path d="M268.6558,836.9063 C277.6558,836.9063 280.6558,834.332 280.6558,825.332 C280.6558,816.332 283.6558,813.7578 292.6558,813.7578" fill="none" style="stroke:#181818;stroke-width:1.5;"/><line style="stroke:#181818;stroke-width:1.5;" x1="99.0474" x2="99.0474" y1="836.9063" y2="836.9063"/><rect fill="#F1F1F1" height="26.2969" rx="5" ry="5" style="stroke:#181818;stroke-width:1.5;" width="18.5791" x="99.0474" y="823.7578"/><text fill="#000000" font-family="sans-serif" font-size="14" lengthAdjust="spacing" textLength="8.5791" x="104.0474" y="841.7529">a</text><line style="stroke:#181818;stroke-width:1.5;" x1="117.6265" x2="137.6265" y1="836.9063" y2="836.9063"/><line style="stroke:#181818;stroke-width:1.5;" x1="137.6265" x2="268.6558" y1="836.9063" y2="836.9063"/><path d="M188.0382,836.9063 L188.0382,833.9063 L194.0382,836.9063 L188.0382,839.9063 L188.0382,836.9063" fill="#181818"/><path d="M137.6265,836.9063 C146.6265,836.9063 149.6265,845.4805 149.6265,854.4805 C149.6265,863.4805 152.6265,872.0547 161.6265,872.0547" fill="none" style="stroke:#181818;stroke-width:1.5;"/><path d="M244.6558,872.0547 C253.6558,872.0547 256.6558,863.4805 256.6558,854.4805 C256.6558,845.4805 259.6558,836.9063 268.6558,836.9063" fill="none" style="stroke:#181818;stroke-width:1.5;"/><path d="M169.6265,864.0547 C169.6265,870.0547 171.6265,872.0547 177.6265,872.0547" fill="none" style="stroke:#181818;stroke-width:1.5;"/><line style="stroke:#181818;stroke-width:1.5;" x1="169.6265" x2="169.6265" y1="859.9063" y2="864.0547"/><path d="M169.6265,859.9063 C169.6265,853.9063 171.6265,851.9063 177.6265,851.9063" fill="none" style="stroke:#181818;stroke-width:1.5;"/><line style="stroke:#181818;stroke-width:1.5;" x1="176.6265" x2="229.6558" y1="851.9063" y2="851.9063"/><path d="M206.444,851.9063 L206.444,848.9063 L200.444,851.9063 L206.444,854.9063 L206.444,851.9063" fill="#181818"/><path d="M236.6558,864.0547 C236.6558,870.0547 234.6558,872.0547 228.6558,872.0547" fill="none" style="stroke:#181818;stroke-width:1.5;"/><line style="stroke:#181818;stroke-width:1.5;" x1="236.6558" x2="236.6558" y1="859.9063" y2="864.0547"/><path d="M228.6558,851.9063 C234.6558,851.9063 236.6558,853.9063 236.6558,859.9063" fill="none" style="stroke:#181818;stroke-width:1.5;"/><line style="stroke:#181818;stroke-width:1.5;" x1="161.6265" x2="176.6265" y1="872.0547" y2="872.0547"/><line style="stroke:#181818;stroke-width:1.5;" x1="229.6558" x2="244.6558" y1="872.0547" y2="872.0547"/><line style="stroke:#181818;stroke-width:1.5;" x1="176.6265" x2="176.6265" y1="872.0547" y2="872.0547"/><rect fill="none" height="26.2969" style="stroke:#181818;stroke-width:0.5;" width="14.4502" x="176.6265" y="858.9063"/><text fill="#000000" font-family="sans-serif" font-size="14" lengthAdjust="spacing" textLength="4.4502" x="181.6265" y="876.9014">,</text><line style="stroke:#181818;stroke-width:1.5;" x1="191.0767" x2="211.0767" y1="872.0547" y2="872.0547"/><rect fill="#F1F1F1" height="26.2969" rx="5" ry="5" style="stroke:#181818;stroke-width:1.5;" width="18.5791" x="211.0767" y="858.9063"/><text fill="#000000" font-family="sans-serif" font-size="14" lengthAdjust="spacing" textLength="8.5791" x="216.0767" y="876.9014">a</text><ellipse cx="49.0474" cy="813.7578" fill="none" rx="4" ry="4" style="stroke:#181818;stroke-width:2;"/><ellipse cx="322.6558" cy="813.7578" fill="#181818" rx="4" ry="4" style="stroke:#181818;stroke-width:1;"/><line style="stroke:#181818;stroke-width:1.5;" x1="53.0474" x2="75.0474" y1="813.7578" y2="813.7578"/><line style="stroke:#181818;stroke-width:1.5;" x1="292.6558" x2="318.6558" y1="813.7578" y2="813.7578"/><path d="M303.6558,813.7578 L303.6558,810.7578 L309.6558,813.7578 L303.6558,816.7578 L303.6558,813.7578" fill="#181818"/><text fill="#000000" font-family="sans-serif" font-size="14" font-weight="bold" lengthAdjust="spacing" textLength="225.4629" x="45.0474" y="913.1982">one_or_more_with_separator</text><line style="stroke:#181818;stroke-width:1.5;" x1="75.0474" x2="75.0474" y1="939.6484" y2="939.6484"/><rect fill="#F1F1F1" height="26.2969" rx="5" ry="5" style="stroke:#181818;stroke-width:1.5;" width="18.5791" x="75.0474" y="926.5"/><text fill="#000000" font-family="sans-serif" font-size="14" lengthAdjust="spacing" textLength="8.5791" x="80.0474" y="944.4951">a</text><line style="stroke:#181818;stroke-width:1.5;" x1="93.6265" x2="113.6265" y1="939.6484" y2="939.6484"/><line style="stroke:#181818;stroke-width:1.5;" x1="113.6265" x2="244.6558" y1="939.6484" y2="939.6484"/><path d="M164.0382,939.6484 L164.0382,936.6484 L170.0382,939.6484 L164.0382,942.6484 L164.0382,939.6484" fill="#181818"/><path d="M113.6265,939.6484 C122.6265,939.6484 125.6265,948.2227 125.6265,957.2227 C125.6265,966.2227 128.6265,974.7969 137.6265,974.7969" fill="none" style="stroke:#181818;stroke-width:1.5;"/><path d="M220.6558,974.7969 C229.6558,974.7969 232.6558,966.2227 232.6558,957.2227 C232.6558,948.2227 235.6558,939.6484 244.6558,939.6484" fill="none" style="stroke:#181818;stroke-width:1.5;"/><path d="M145.6265,966.7969 C145.6265,972.7969 147.6265,974.7969 153.6265,974.7969" fill="none" style="stroke:#181818;stroke-width:1.5;"/><line style="stroke:#181818;stroke-width:1.5;" x1="145.6265" x2="145.6265" y1="962.6484" y2="966.7969"/><path d="M145.6265,962.6484 C145.6265,956.6484 147.6265,954.6484 153.6265,954.6484" fill="none" style="stroke:#181818;stroke-width:1.5;"/><line style="stroke:#181818;stroke-width:1.5;" x1="152.6265" x2="205.6558" y1="954.6484" y2="954.6484"/><path d="M182.444,954.6484 L182.444,951.6484 L176.444,954.6484 L182.444,957.6484 L182.444,954.6484" fill="#181818"/><path d="M212.6558,966.7969 C212.6558,972.7969 210.6558,974.7969 204.6558,974.7969" fill="none" style="stroke:#181818;stroke-width:1.5;"/><line style="stroke:#181818;stroke-width:1.5;" x1="212.6558" x2="212.6558" y1="962.6484" y2="966.7969"/><path d="M204.6558,954.6484 C210.6558,954.6484 212.6558,956.6484 212.6558,962.6484" fill="none" style="stroke:#181818;stroke-width:1.5;"/><line style="stroke:#181818;stroke-width:1.5;" x1="137.6265" x2="152.6265" y1="974.7969" y2="974.7969"/><line style="stroke:#181818;stroke-width:1.5;" x1="205.6558" x2="220.6558" y1="974.7969" y2="974.7969"/><line style="stroke:#181818;stroke-width:1.5;" x1="152.6265" x2="152.6265" y1="974.7969" y2="974.7969"/><rect fill="none" height="26.2969" style="stroke:#181818;stroke-width:0.5;" width="14.4502" x="152.6265" y="961.6484"/><text fill="#000000" font-family="sans-serif" font-size="14" lengthAdjust="spacing" textLength="4.4502" x="157.6265" y="979.6436">,</text><line style="stroke:#181818;stroke-width:1.5;" x1="167.0767" x2="187.0767" y1="974.7969" y2="974.7969"/><rect fill="#F1F1F1" height="26.2969" rx="5" ry="5" style="stroke:#181818;stroke-width:1.5;" width="18.5791" x="187.0767" y="961.6484"/><text fill="#000000" font-family="sans-serif" font-size="14" lengthAdjust="spacing" textLength="8.5791" x="192.0767" y="979.6436">a</text><ellipse cx="49.0474" cy="939.6484" fill="none" rx="4" ry="4" style="stroke:#181818;stroke-width:2;"/><ellipse cx="274.6558" cy="939.6484" fill="#181818" rx="4" ry="4" style="stroke:#181818;stroke-width:1;"/><line style="stroke:#181818;stroke-width:1.5;" x1="53.0474" x2="75.0474" y1="939.6484" y2="939.6484"/><line style="stroke:#181818;stroke-width:1.5;" x1="244.6558" x2="270.6558" y1="939.6484" y2="939.6484"/><path d="M255.6558,939.6484 L255.6558,936.6484 L261.6558,939.6484 L255.6558,942.6484 L255.6558,939.6484" fill="#181818"/><text fill="#000000" font-family="sans-serif" font-size="14" font-weight="bold" lengthAdjust="spacing" textLength="238.793" x="45.0474" y="1015.9404">zero_or_more_with_terminator</text><line style="stroke:#181818;stroke-width:1.5;" x1="75.0474" x2="206.0767" y1="1039.2422" y2="1039.2422"/><path d="M125.4591,1039.2422 L125.4591,1036.2422 L131.4591,1039.2422 L125.4591,1042.2422 L125.4591,1039.2422" fill="#181818"/><path d="M75.0474,1039.2422 C84.0474,1039.2422 87.0474,1047.8164 87.0474,1056.8164 C87.0474,1065.8164 90.0474,1074.3906 99.0474,1074.3906" fill="none" style="stroke:#181818;stroke-width:1.5;"/><path d="M182.0767,1074.3906 C191.0767,1074.3906 194.0767,1065.8164 194.0767,1056.8164 C194.0767,1047.8164 197.0767,1039.2422 206.0767,1039.2422" fill="none" style="stroke:#181818;stroke-width:1.5;"/><path d="M107.0474,1066.3906 C107.0474,1072.3906 109.0474,1074.3906 115.0474,1074.3906" fill="none" style="stroke:#181818;stroke-width:1.5;"/><line style="stroke:#181818;stroke-width:1.5;" x1="107.0474" x2="107.0474" y1="1062.2422" y2="1066.3906"/><path d="M107.0474,1062.2422 C107.0474,1056.2422 109.0474,1054.2422 115.0474,1054.2422" fill="none" style="stroke:#181818;stroke-width:1.5;"/><line style="stroke:#181818;stroke-width:1.5;" x1="114.0474" x2="167.0767" y1="1054.2422" y2="1054.2422"/><path d="M143.8649,1054.2422 L143.8649,1051.2422 L137.8649,1054.2422 L143.8649,1057.2422 L143.8649,1054.2422" fill="#181818"/><path d="M174.0767,1066.3906 C174.0767,1072.3906 172.0767,1074.3906 166.0767,1074.3906" fill="none" style="stroke:#181818;stroke-width:1.5;"/><line style="stroke:#181818;stroke-width:1.5;" x1="174.0767" x2="174.0767" y1="1062.2422" y2="1066.3906"/><path d="M166.0767,1054.2422 C172.0767,1054.2422 174.0767,1056.2422 174.0767,1062.2422" fill="none" style="stroke:#181818;stroke-width:1.5;"/><line style="stroke:#181818;stroke-width:1.5;" x1="99.0474" x2="114.0474" y1="1074.3906" y2="1074.3906"/><line style="stroke:#181818;stroke-width:1.5;" x1="167.0767" x2="182.0767" y1="1074.3906" y2="1074.3906"/><line style="stroke:#181818;stroke-width:1.5;" x1="114.0474" x2="114.0474" y1="1074.3906" y2="1074.3906"/><rect fill="#F1F1F1" height="26.2969" rx="5" ry="5" style="stroke:#181818;stroke-width:1.5;" width="18.5791" x="114.0474" y="1061.2422"/><text fill="#000000" font-family="sans-serif" font-size="14" lengthAdjust="spacing" textLength="8.5791" x="119.0474" y="1079.2373">a</text><line style="stroke:#181818;stroke-width:1.5;" x1="132.6265" x2="152.6265" y1="1074.3906" y2="1074.3906"/><rect fill="none" height="26.2969" style="stroke:#181818;stroke-width:0.5;" width="14.4502" x="152.6265" y="1061.2422"/><text fill="#000000" font-family="sans-serif" font-size="14" lengthAdjust="spacing" textLength="4.4502" x="157.6265" y="1079.2373">,</text><ellipse cx="49.0474" cy="1039.2422" fill="none" rx="4" ry="4" style="stroke:#181818;stroke-width:2;"/><ellipse cx="236.0767" cy="1039.2422" fill="#181818" rx="4" ry="4" style="stroke:#181818;stroke-width:1;"/><line style="stroke:#181818;stroke-width:1.5;" x1="53.0474" x2="75.0474" y1="1039.2422" y2="1039.2422"/><line style="stroke:#181818;stroke-width:1.5;" x1="206.0767" x2="232.0767" y1="1039.2422" y2="1039.2422"/><path d="M217.0767,1039.2422 L217.0767,1036.2422 L223.0767,1039.2422 L217.0767,1042.2422 L217.0767,1039.2422" fill="#181818"/><text fill="#000000" font-family="sans-serif" font-size="14" font-weight="bold" lengthAdjust="spacing" textLength="233.707" x="45.0474" y="1115.5342">one_or_more_with_terminator</text><line style="stroke:#181818;stroke-width:1.5;" x1="75.0474" x2="75.0474" y1="1141.9844" y2="1141.9844"/><rect fill="#F1F1F1" height="26.2969" rx="5" ry="5" style="stroke:#181818;stroke-width:1.5;" width="18.5791" x="75.0474" y="1128.8359"/><text fill="#000000" font-family="sans-serif" font-size="14" lengthAdjust="spacing" textLength="8.5791" x="80.0474" y="1146.8311">a</text><line style="stroke:#181818;stroke-width:1.5;" x1="93.6265" x2="113.6265" y1="1141.9844" y2="1141.9844"/><rect fill="none" height="26.2969" style="stroke:#181818;stroke-width:0.5;" width="14.4502" x="113.6265" y="1128.8359"/><text fill="#000000" font-family="sans-serif" font-size="14" lengthAdjust="spacing" textLength="4.4502" x="118.6265" y="1146.8311">,</text><line style="stroke:#181818;stroke-width:1.5;" x1="128.0767" x2="148.0767" y1="1141.9844" y2="1141.9844"/><line style="stroke:#181818;stroke-width:1.5;" x1="148.0767" x2="279.106" y1="1141.9844" y2="1141.9844"/><path d="M198.4884,1141.9844 L198.4884,1138.9844 L204.4884,1141.9844 L198.4884,1144.9844 L198.4884,1141.9844" fill="#181818"/><path d="M148.0767,1141.9844 C157.0767,1141.9844 160.0767,1150.5586 160.0767,1159.5586 C160.0767,1168.5586 163.0767,1177.1328 172.0767,1177.1328" fill="none" style="stroke:#181818;stroke-width:1.5;"/><path d="M255.106,1177.1328 C264.106,1177.1328 267.106,1168.5586 267.106,1159.5586 C267.106,1150.5586 270.106,1141.9844 279.106,1141.9844" fill="none" style="stroke:#181818;stroke-width:1.5;"/><path d="M180.0767,1169.1328 C180.0767,1175.1328 182.0767,1177.1328 188.0767,1177.1328" fill="none" style="stroke:#181818;stroke-width:1.5;"/><line style="stroke:#181818;stroke-width:1.5;" x1="180.0767" x2="180.0767" y1="1164.9844" y2="1169.1328"/><path d="M180.0767,1164.9844 C180.0767,1158.9844 182.0767,1156.9844 188.0767,1156.9844" fill="none" style="stroke:#181818;stroke-width:1.5;"/><line style="stroke:#181818;stroke-width:1.5;" x1="187.0767" x2="240.106" y1="1156.9844" y2="1156.9844"/><path d="M216.8942,1156.9844 L216.8942,1153.9844 L210.8942,1156.9844 L216.8942,1159.9844 L216.8942,1156.9844" fill="#181818"/><path d="M247.106,1169.1328 C247.106,1175.1328 245.106,1177.1328 239.106,1177.1328" fill="none" style="stroke:#181818;stroke-width:1.5;"/><line style="stroke:#181818;stroke-width:1.5;" x1="247.106" x2="247.106" y1="1164.9844" y2="1169.1328"/><path d="M239.106,1156.9844 C245.106,1156.9844 247.106,1158.9844 247.106,1164.9844" fill="none" style="stroke:#181818;stroke-width:1.5;"/><line style="stroke:#181818;stroke-width:1.5;" x1="172.0767" x2="187.0767" y1="1177.1328" y2="1177.1328"/><line style="stroke:#181818;stroke-width:1.5;" x1="240.106" x2="255.106" y1="1177.1328" y2="1177.1328"/><line style="stroke:#181818;stroke-width:1.5;" x1="187.0767" x2="187.0767" y1="1177.1328" y2="1177.1328"/><rect fill="#F1F1F1" height="26.2969" rx="5" ry="5" style="stroke:#181818;stroke-width:1.5;" width="18.5791" x="187.0767" y="1163.9844"/><text fill="#000000" font-family="sans-serif" font-size="14" lengthAdjust="spacing" textLength="8.5791" x="192.0767" y="1181.9795">a</text><line style="stroke:#181818;stroke-width:1.5;" x1="205.6558" x2="225.6558" y1="1177.1328" y2="1177.1328"/><rect fill="none" height="26.2969" style="stroke:#181818;stroke-width:0.5;" width="14.4502" x="225.6558" y="1163.9844"/><text fill="#000000" font-family="sans-serif" font-size="14" lengthAdjust="spacing" textLength="4.4502" x="230.6558" y="1181.9795">,</text><ellipse cx="49.0474" cy="1141.9844" fill="none" rx="4" ry="4" style="stroke:#181818;stroke-width:2;"/><ellipse cx="309.106" cy="1141.9844" fill="#181818" rx="4" ry="4" style="stroke:#181818;stroke-width:1;"/><line style="stroke:#181818;stroke-width:1.5;" x1="53.0474" x2="75.0474" y1="1141.9844" y2="1141.9844"/><line style="stroke:#181818;stroke-width:1.5;" x1="279.106" x2="305.106" y1="1141.9844" y2="1141.9844"/><path d="M290.106,1141.9844 L290.106,1138.9844 L296.106,1141.9844 L290.106,1144.9844 L290.106,1141.9844" fill="#181818"/><text fill="#000000" font-family="sans-serif" font-size="14" font-weight="bold" lengthAdjust="spacing" textLength="276.2813" x="45.0474" y="1218.2764">one_or_more_with_terminator_ebnf</text><path d="M83.0474,1248.7266 C83.0474,1254.7266 85.0474,1256.7266 91.0474,1256.7266" fill="none" style="stroke:#181818;stroke-width:1.5;"/><line style="stroke:#181818;stroke-width:1.5;" x1="83.0474" x2="83.0474" y1="1244.5781" y2="1248.7266"/><path d="M83.0474,1244.5781 C83.0474,1238.5781 85.0474,1236.5781 91.0474,1236.5781" fill="none" style="stroke:#181818;stroke-width:1.5;"/><line style="stroke:#181818;stroke-width:1.5;" x1="90.0474" x2="143.0767" y1="1236.5781" y2="1236.5781"/><path d="M119.8649,1236.5781 L119.8649,1233.5781 L113.8649,1236.5781 L119.8649,1239.5781 L119.8649,1236.5781" fill="#181818"/><path d="M150.0767,1248.7266 C150.0767,1254.7266 148.0767,1256.7266 142.0767,1256.7266" fill="none" style="stroke:#181818;stroke-width:1.5;"/><line style="stroke:#181818;stroke-width:1.5;" x1="150.0767" x2="150.0767" y1="1244.5781" y2="1248.7266"/><path d="M142.0767,1236.5781 C148.0767,1236.5781 150.0767,1238.5781 150.0767,1244.5781" fill="none" style="stroke:#181818;stroke-width:1.5;"/><line style="stroke:#181818;stroke-width:1.5;" x1="75.0474" x2="90.0474" y1="1256.7266" y2="1256.7266"/><line style="stroke:#181818;stroke-width:1.5;" x1="143.0767" x2="158.0767" y1="1256.7266" y2="1256.7266"/><line style="stroke:#181818;stroke-width:1.5;" x1="90.0474" x2="90.0474" y1="1256.7266" y2="1256.7266"/><rect fill="#F1F1F1" height="26.2969" rx="5" ry="5" style="stroke:#181818;stroke-width:1.5;" width="18.5791" x="90.0474" y="1243.5781"/><text fill="#000000" font-family="sans-serif" font-size="14" lengthAdjust="spacing" textLength="8.5791" x="95.0474" y="1261.5732">a</text><line style="stroke:#181818;stroke-width:1.5;" x1="108.6265" x2="128.6265" y1="1256.7266" y2="1256.7266"/><rect fill="none" height="26.2969" style="stroke:#181818;stroke-width:0.5;" width="14.4502" x="128.6265" y="1243.5781"/><text fill="#000000" font-family="sans-serif" font-size="14" lengthAdjust="spacing" textLength="4.4502" x="133.6265" y="1261.5732">,</text><ellipse cx="49.0474" cy="1256.7266" fill="none" rx="4" ry="4" style="stroke:#181818;stroke-width:2;"/><ellipse cx="188.0767" cy="1256.7266" fill="#181818" rx="4" ry="4" style="stroke:#181818;stroke-width:1;"/><line style="stroke:#181818;stroke-width:1.5;" x1="53.0474" x2="75.0474" y1="1256.7266" y2="1256.7266"/><line style="stroke:#181818;stroke-width:1.5;" x1="158.0767" x2="184.0767" y1="1256.7266" y2="1256.7266"/><path d="M169.0767,1256.7266 L169.0767,1253.7266 L175.0767,1256.7266 L169.0767,1259.7266 L169.0767,1256.7266" fill="#181818"/><text fill="#000000" font-family="sans-serif" font-size="14" font-weight="bold" lengthAdjust="spacing" textLength="86.8643" x="45.0474" y="1297.8701">alternative</text><rect fill="#F1F1F1" height="26.2969" rx="5" ry="5" style="stroke:#181818;stroke-width:1.5;" width="18.5791" x="99.0474" y="1311.1719"/><text fill="#000000" font-family="sans-serif" font-size="14" lengthAdjust="spacing" textLength="8.5791" x="104.0474" y="1329.167">a</text><line style="stroke:#181818;stroke-width:1.5;" x1="75.0474" x2="99.0474" y1="1324.3203" y2="1324.3203"/><line style="stroke:#181818;stroke-width:1.5;" x1="117.6265" x2="141.9341" y1="1324.3203" y2="1324.3203"/><rect fill="#F1F1F1" height="26.2969" rx="5" ry="5" style="stroke:#181818;stroke-width:1.5;" width="18.8867" x="99.0474" y="1347.4688"/><text fill="#000000" font-family="sans-serif" font-size="14" lengthAdjust="spacing" textLength="8.8867" x="104.0474" y="1365.4639">b</text><line style="stroke:#181818;stroke-width:1.5;" x1="117.9341" x2="117.9341" y1="1360.6172" y2="1360.6172"/><path d="M87.0474,1348.6172 C87.0474,1357.6172 90.0474,1360.6172 99.0474,1360.6172" fill="none" style="stroke:#181818;stroke-width:1.5;"/><line style="stroke:#181818;stroke-width:1.5;" x1="87.0474" x2="87.0474" y1="1336.3203" y2="1348.6172"/><path d="M75.0474,1324.3203 C84.0474,1324.3203 87.0474,1327.3203 87.0474,1336.3203" fill="none" style="stroke:#181818;stroke-width:1.5;"/><path d="M129.9341,1348.6172 C129.9341,1357.6172 126.9341,1360.6172 117.9341,1360.6172" fill="none" style="stroke:#181818;stroke-width:1.5;"/><line style="stroke:#181818;stroke-width:1.5;" x1="129.9341" x2="129.9341" y1="1336.3203" y2="1348.6172"/><path d="M129.9341,1336.3203 C129.9341,1327.3203 132.9341,1324.3203 141.9341,1324.3203" fill="none" style="stroke:#181818;stroke-width:1.5;"/><ellipse cx="49.0474" cy="1324.3203" fill="none" rx="4" ry="4" style="stroke:#181818;stroke-width:2;"/><ellipse cx="171.9341" cy="1324.3203" fill="#181818" rx="4" ry="4" style="stroke:#181818;stroke-width:1;"/><line style="stroke:#181818;stroke-width:1.5;" x1="53.0474" x2="75.0474" y1="1324.3203" y2="1324.3203"/><line style="stroke:#181818;stroke-width:1.5;" x1="141.9341" x2="167.9341" y1="1324.3203" y2="1324.3203"/><path d="M152.9341,1324.3203 L152.9341,1321.3203 L158.9341,1324.3203 L152.9341,1327.3203 L152.9341,1324.3203" fill="#181818"/><text fill="#000000" font-family="sans-serif" font-size="14" font-weight="bold" lengthAdjust="spacing" textLength="46.5322" x="45.0474" y="1401.7607">group</text><line style="stroke:#181818;stroke-width:1.5;" x1="75.0474" x2="75.0474" y1="1428.2109" y2="1428.2109"/><rect fill="#F1F1F1" height="26.2969" rx="5" ry="5" style="stroke:#181818;stroke-width:1.5;" width="18.5791" x="99.0474" y="1415.0625"/><text fill="#000000" font-family="sans-serif" font-size="14" lengthAdjust="spacing" textLength="8.5791" x="104.0474" y="1433.0576">a</text><line style="stroke:#181818;stroke-width:1.5;" x1="75.0474" x2="99.0474" y1="1428.2109" y2="1428.2109"/><line style="stroke:#181818;stroke-width:1.5;" x1="117.6265" x2="141.9341" y1="1428.2109" y2="1428.2109"/><rect fill="#F1F1F1" height="26.2969" rx="5" ry="5" style="stroke:#181818;stroke-width:1.5;" width="18.8867" x="99.0474" y="1451.3594"/><text fill="#000000" font-family="sans-serif" font-size="14" lengthAdjust="spacing" textLength="8.8867" x="104.0474" y="1469.3545">b</text><line style="stroke:#181818;stroke-width:1.5;" x1="117.9341" x2="117.9341" y1="1464.5078" y2="1464.5078"/><path d="M87.0474,1452.5078 C87.0474,1461.5078 90.0474,1464.5078 99.0474,1464.5078" fill="none" style="stroke:#181818;stroke-width:1.5;"/><line style="stroke:#181818;stroke-width:1.5;" x1="87.0474" x2="87.0474" y1="1440.2109" y2="1452.5078"/><path d="M75.0474,1428.2109 C84.0474,1428.2109 87.0474,1431.2109 87.0474,1440.2109" fill="none" style="stroke:#181818;stroke-width:1.5;"/><path d="M129.9341,1452.5078 C129.9341,1461.5078 126.9341,1464.5078 117.9341,1464.5078" fill="none" style="stroke:#181818;stroke-width:1.5;"/><line style="stroke:#181818;stroke-width:1.5;" x1="129.9341" x2="129.9341" y1="1440.2109" y2="1452.5078"/><path d="M129.9341,1440.2109 C129.9341,1431.2109 132.9341,1428.2109 141.9341,1428.2109" fill="none" style="stroke:#181818;stroke-width:1.5;"/><line style="stroke:#181818;stroke-width:1.5;" x1="141.9341" x2="161.9341" y1="1428.2109" y2="1428.2109"/><rect fill="#F1F1F1" height="26.2969" rx="5" ry="5" style="stroke:#181818;stroke-width:1.5;" width="17.6973" x="161.9341" y="1415.0625"/><text fill="#000000" font-family="sans-serif" font-size="14" lengthAdjust="spacing" textLength="7.6973" x="166.9341" y="1433.0576">c</text><ellipse cx="49.0474" cy="1428.2109" fill="none" rx="4" ry="4" style="stroke:#181818;stroke-width:2;"/><ellipse cx="209.6313" cy="1428.2109" fill="#181818" rx="4" ry="4" style="stroke:#181818;stroke-width:1;"/><line style="stroke:#181818;stroke-width:1.5;" x1="53.0474" x2="75.0474" y1="1428.2109" y2="1428.2109"/><line style="stroke:#181818;stroke-width:1.5;" x1="179.6313" x2="205.6313" y1="1428.2109" y2="1428.2109"/><path d="M190.6313,1428.2109 L190.6313,1425.2109 L196.6313,1428.2109 L190.6313,1431.2109 L190.6313,1428.2109" fill="#181818"/><text fill="#000000" font-family="sans-serif" font-size="14" font-weight="bold" lengthAdjust="spacing" textLength="114.2012" x="45.0474" y="1505.6514">without_group</text><rect fill="#F1F1F1" height="26.2969" rx="5" ry="5" style="stroke:#181818;stroke-width:1.5;" width="18.5791" x="99.0474" y="1518.9531"/><text fill="#000000" font-family="sans-serif" font-size="14" lengthAdjust="spacing" textLength="8.5791" x="104.0474" y="1536.9482">a</text><line style="stroke:#181818;stroke-width:1.5;" x1="75.0474" x2="99.0474" y1="1532.1016" y2="1532.1016"/><line style="stroke:#181818;stroke-width:1.5;" x1="117.6265" x2="179.6313" y1="1532.1016" y2="1532.1016"/><line style="stroke:#181818;stroke-width:1.5;" x1="99.0474" x2="99.0474" y1="1568.3984" y2="1568.3984"/><rect fill="#F1F1F1" height="26.2969" rx="5" ry="5" style="stroke:#181818;stroke-width:1.5;" width="18.8867" x="99.0474" y="1555.25"/><text fill="#000000" font-family="sans-serif" font-size="14" lengthAdjust="spacing" textLength="8.8867" x="104.0474" y="1573.2451">b</text><line style="stroke:#181818;stroke-width:1.5;" x1="117.9341" x2="137.9341" y1="1568.3984" y2="1568.3984"/><rect fill="#F1F1F1" height="26.2969" rx="5" ry="5" style="stroke:#181818;stroke-width:1.5;" width="17.6973" x="137.9341" y="1555.25"/><text fill="#000000" font-family="sans-serif" font-size="14" lengthAdjust="spacing" textLength="7.6973" x="142.9341" y="1573.2451">c</text><line style="stroke:#181818;stroke-width:1.5;" x1="155.6313" x2="155.6313" y1="1568.3984" y2="1568.3984"/><path d="M87.0474,1556.3984 C87.0474,1565.3984 90.0474,1568.3984 99.0474,1568.3984" fill="none" style="stroke:#181818;stroke-width:1.5;"/><line style="stroke:#181818;stroke-width:1.5;" x1="87.0474" x2="87.0474" y1="1544.1016" y2="1556.3984"/><path d="M75.0474,1532.1016 C84.0474,1532.1016 87.0474,1535.1016 87.0474,1544.1016" fill="none" style="stroke:#181818;stroke-width:1.5;"/><path d="M167.6313,1556.3984 C167.6313,1565.3984 164.6313,1568.3984 155.6313,1568.3984" fill="none" style="stroke:#181818;stroke-width:1.5;"/><line style="stroke:#181818;stroke-width:1.5;" x1="167.6313" x2="167.6313" y1="1544.1016" y2="1556.3984"/><path d="M167.6313,1544.1016 C167.6313,1535.1016 170.6313,1532.1016 179.6313,1532.1016" fill="none" style="stroke:#181818;stroke-width:1.5;"/><ellipse cx="49.0474" cy="1532.1016" fill="none" rx="4" ry="4" style="stroke:#181818;stroke-width:2;"/><ellipse cx="209.6313" cy="1532.1016" fill="#181818" rx="4" ry="4" style="stroke:#181818;stroke-width:1;"/><line style="stroke:#181818;stroke-width:1.5;" x1="53.0474" x2="75.0474" y1="1532.1016" y2="1532.1016"/><line style="stroke:#181818;stroke-width:1.5;" x1="179.6313" x2="205.6313" y1="1532.1016" y2="1532.1016"/><path d="M190.6313,1532.1016 L190.6313,1529.1016 L196.6313,1532.1016 L190.6313,1535.1016 L190.6313,1532.1016" fill="#181818"/><!--SRC=[ZP91Jzj048Nl-oj6N4YGWnfK48g5e9HGAKq0bOPBXQonFRYhhcVTzMuGfVdl7QyR0OL3ZpFlUy-UdJbfFJfFETyfhxqX-60CJ4ylpe4CrSI-XHePAoeXVu0hW-oNYxbIWnsui2Mri3DKHdjF3WqSmHPkfQfjgD2nF0Q4urIv8C57W6dqJSkgzpdw6RIJv2ZPnclBqVODRmNzHSvcrcMrTPtx4TS2CJrhOVAgctMZzFJedupiNlllMKiDElJMnUz8m7QodG2kRr_6l6AVeUaRiV80jUQ_xAF0mgxVY7p1zLZoV_pJP3tSZOT6T57rAZu7_8OyLPMpeP5o4EiX952agWkpmMSRCMgzT49SnWDGc_N2Ybmhou3nxjwxlVtTyJWdZ_k39VzWUyzGsBhHibAlQnggmQUhERGsk8AWrArtEW_TAeTgXYk4Bu4xRWAN3V7ixFEc0LDUQMUvEp8rkray0GVlHwVQmpKv-G-uMQWpkiDWl3WAMsgk9h3yUZuwL7FaAiXjJe1OVRIIwnv4k_u3]--></g></svg>