<svg xmlns="http://www.w3.org/2000/svg" xmlns:xlink="http://www.w3.org/1999/xlink" contentStyleType="text/css" data-diagram-type="GANTT" height="94px" preserveAspectRatio="none" style="width:229px;height:94px;background:#FFFFFF;" version="1.1" viewBox="0 0 229 94" width="229px" zoomAndPan="magnify"><defs/><g><rect fill="#F1E5E5" height="33.6094" style="stroke:none;stroke-width:1;" width="8" x="4" y="43"/><rect fill="#F1E5E5" height="33.6094" style="stroke:none;stroke-width:1;" width="8" x="32" y="43"/><rect fill="#F1E5E5" height="33.6094" style="stroke:none;stroke-width:1;" width="8" x="60" y="43"/><rect fill="#FA8072" height="33.6094" style="stroke:none;stroke-width:1;" width="20" x="68" y="43"/><rect fill="#F1E5E5" height="33.6094" style="stroke:none;stroke-width:1;" width="8" x="88" y="43"/><rect fill="#F1E5E5" height="33.6094" style="stroke:none;stroke-width:1;" width="8" x="116" y="43"/><rect fill="#F1E5E5" height="33.6094" style="stroke:none;stroke-width:1;" width="8" x="144" y="43"/><rect fill="#F1E5E5" height="33.6094" style="stroke:none;stroke-width:1;" width="8" x="172" y="43"/><text fill="#000000" font-family="sans-serif" font-size="10" lengthAdjust="spacing" textLength="6.3623" x="17" y="25.2822">1</text><text fill="#000000" font-family="sans-serif" font-size="10" lengthAdjust="spacing" textLength="6.3623" x="45" y="25.2822">2</text><text fill="#000000" font-family="sans-serif" font-size="10" lengthAdjust="spacing" textLength="6.3623" x="73" y="25.2822">3</text><text fill="#000000" font-family="sans-serif" font-size="10" lengthAdjust="spacing" textLength="6.3623" x="101" y="25.2822">4</text><text fill="#000000" font-family="sans-serif" font-size="10" lengthAdjust="spacing" textLength="6.3623" x="129" y="25.2822">5</text><text fill="#000000" font-family="sans-serif" font-size="10" lengthAdjust="spacing" textLength="6.3623" x="157" y="25.2822">6</text><text fill="#000000" font-family="sans-serif" font-size="10" lengthAdjust="spacing" textLength="6.3623" x="185" y="25.2822">7</text><line style="stroke:#C0C0C0;stroke-width:1;" x1="12" x2="12" y1="16" y2="76.6094"/><line style="stroke:#C0C0C0;stroke-width:1;" x1="40" x2="40" y1="16" y2="76.6094"/><line style="stroke:#C0C0C0;stroke-width:1;" x1="68" x2="68" y1="16" y2="76.6094"/><line style="stroke:#C0C0C0;stroke-width:1;" x1="96" x2="96" y1="16" y2="76.6094"/><line style="stroke:#C0C0C0;stroke-width:1;" x1="124" x2="124" y1="16" y2="76.6094"/><line style="stroke:#C0C0C0;stroke-width:1;" x1="152" x2="152" y1="16" y2="76.6094"/><line style="stroke:#C0C0C0;stroke-width:1;" x1="180" x2="180" y1="16" y2="76.6094"/><line style="stroke:#C0C0C0;stroke-width:1;" x1="188" x2="188" y1="16" y2="76.6094"/><line style="stroke:#C0C0C0;stroke-width:1;" x1="0" x2="0" y1="0" y2="16"/><line style="stroke:#C0C0C0;stroke-width:1;" x1="124" x2="124" y1="0" y2="16"/><text fill="#000000" font-family="sans-serif" font-size="12" font-weight="bold" lengthAdjust="spacing" textLength="58.6816" x="32.6592" y="11.1387">Jan 2021</text><line style="stroke:#C0C0C0;stroke-width:1;" x1="188" x2="188" y1="0" y2="16"/><text fill="#000000" font-family="sans-serif" font-size="12" font-weight="bold" lengthAdjust="spacing" textLength="62.502" x="124.749" y="11.1387">Feb 2021</text><text fill="#000000" font-family="sans-serif" font-size="12" lengthAdjust="spacing" textLength="100.998" x="68" y="38.1387">End's committee</text><line style="stroke:#C0C0C0;stroke-width:1;" x1="0" x2="188" y1="0" y2="0"/><line style="stroke:#C0C0C0;stroke-width:1;" x1="0" x2="188" y1="16" y2="16"/><line style="stroke:#C0C0C0;stroke-width:1;" x1="0" x2="188" y1="43" y2="43"/><path d="M100,57.8047 L100,68.207 L105,68.207" fill="none" style="stroke:#181818;stroke-width:1.5;"/><polygon fill="#181818" points="104,64.207,108,68.207,104,72.207,104,64.207" style="stroke:#181818;stroke-width:1;"/><rect fill="#E6E6FA" height="12.8047" style="stroke:none;stroke-width:1;" width="3" x="2" y="45"/><path d="M4,57.8047 L2,57.8047 L2,45 L4,45" fill="none" style="stroke:#ADD8E6;stroke-width:1;"/><rect fill="#E6E6FA" height="12.8047" style="stroke:none;stroke-width:1;" width="21" x="12" y="45"/><line style="stroke:#ADD8E6;stroke-width:1;" x1="12" x2="32" y1="45" y2="45"/><line style="stroke:#ADD8E6;stroke-width:1;" x1="12" x2="32" y1="57.8047" y2="57.8047"/><rect fill="#E6E6FA" height="12.8047" style="stroke:none;stroke-width:1;" width="21" x="40" y="45"/><line style="stroke:#ADD8E6;stroke-width:1;" x1="40" x2="60" y1="45" y2="45"/><line style="stroke:#ADD8E6;stroke-width:1;" x1="40" x2="60" y1="57.8047" y2="57.8047"/><rect fill="#E6E6FA" height="12.8047" style="stroke:none;stroke-width:1;" width="21" x="68" y="45"/><line style="stroke:#ADD8E6;stroke-width:1;" x1="68" x2="88" y1="45" y2="45"/><line style="stroke:#ADD8E6;stroke-width:1;" x1="68" x2="88" y1="57.8047" y2="57.8047"/><rect fill="#E6E6FA" height="12.8047" style="stroke:none;stroke-width:1;" width="10" x="96" y="45"/><path d="M96,45 L106,45 L106,57.8047 L96,57.8047" fill="none" style="stroke:#ADD8E6;stroke-width:1;"/><line style="stroke:#ADD8E6;stroke-width:1;stroke-dasharray:2,3;" x1="7" x2="9" y1="45" y2="45"/><line style="stroke:#ADD8E6;stroke-width:1;stroke-dasharray:2,3;" x1="7" x2="9" y1="57.8047" y2="57.8047"/><line style="stroke:#ADD8E6;stroke-width:1;stroke-dasharray:2,3;" x1="35" x2="37" y1="45" y2="45"/><line style="stroke:#ADD8E6;stroke-width:1;stroke-dasharray:2,3;" x1="35" x2="37" y1="57.8047" y2="57.8047"/><line style="stroke:#ADD8E6;stroke-width:1;stroke-dasharray:2,3;" x1="63" x2="65" y1="45" y2="45"/><line style="stroke:#ADD8E6;stroke-width:1;stroke-dasharray:2,3;" x1="63" x2="65" y1="57.8047" y2="57.8047"/><line style="stroke:#ADD8E6;stroke-width:1;stroke-dasharray:2,3;" x1="91" x2="93" y1="45" y2="45"/><line style="stroke:#ADD8E6;stroke-width:1;stroke-dasharray:2,3;" x1="91" x2="93" y1="57.8047" y2="57.8047"/><rect fill="#E2E2F0" height="12.8047" style="stroke:none;stroke-width:1;" width="7" x="110" y="61.8047"/><path d="M116,74.6094 L110,74.6094 L110,61.8047 L116,61.8047" fill="none" style="stroke:#181818;stroke-width:1;"/><rect fill="#E2E2F0" height="12.8047" style="stroke:none;stroke-width:1;" width="21" x="124" y="61.8047"/><line style="stroke:#181818;stroke-width:1;" x1="124" x2="144" y1="61.8047" y2="61.8047"/><line style="stroke:#181818;stroke-width:1;" x1="124" x2="144" y1="74.6094" y2="74.6094"/><rect fill="#E2E2F0" height="12.8047" style="stroke:none;stroke-width:1;" width="21" x="152" y="61.8047"/><line style="stroke:#181818;stroke-width:1;" x1="152" x2="172" y1="61.8047" y2="61.8047"/><line style="stroke:#181818;stroke-width:1;" x1="152" x2="172" y1="74.6094" y2="74.6094"/><rect fill="#E2E2F0" height="12.8047" style="stroke:none;stroke-width:1;" width="6" x="180" y="61.8047"/><path d="M180,61.8047 L186,61.8047 L186,74.6094 L180,74.6094" fill="none" style="stroke:#181818;stroke-width:1;"/><line style="stroke:#181818;stroke-width:1;stroke-dasharray:2,3;" x1="119" x2="121" y1="61.8047" y2="61.8047"/><line style="stroke:#181818;stroke-width:1;stroke-dasharray:2,3;" x1="119" x2="121" y1="74.6094" y2="74.6094"/><line style="stroke:#181818;stroke-width:1;stroke-dasharray:2,3;" x1="147" x2="149" y1="61.8047" y2="61.8047"/><line style="stroke:#181818;stroke-width:1;stroke-dasharray:2,3;" x1="147" x2="149" y1="74.6094" y2="74.6094"/><line style="stroke:#181818;stroke-width:1;stroke-dasharray:2,3;" x1="175" x2="177" y1="61.8047" y2="61.8047"/><line style="stroke:#181818;stroke-width:1;stroke-dasharray:2,3;" x1="175" x2="177" y1="74.6094" y2="74.6094"/><text fill="#000000" font-family="sans-serif" font-size="11" lengthAdjust="spacing" textLength="117.7075" x="110" y="55.2104">Prototype design end</text><text fill="#000000" font-family="sans-serif" font-size="11" lengthAdjust="spacing" textLength="40.541" x="114" y="72.0151">Testing</text><line style="stroke:#C0C0C0;stroke-width:1;" x1="0" x2="188" y1="76.6094" y2="76.6094"/><line style="stroke:#C0C0C0;stroke-width:1;" x1="0" x2="0" y1="76.6094" y2="92.6094"/><line style="stroke:#C0C0C0;stroke-width:1;" x1="124" x2="124" y1="76.6094" y2="92.6094"/><text fill="#000000" font-family="sans-serif" font-size="12" font-weight="bold" lengthAdjust="spacing" textLength="58.6816" x="32.6592" y="87.748">Jan 2021</text><line style="stroke:#C0C0C0;stroke-width:1;" x1="188" x2="188" y1="76.6094" y2="92.6094"/><text fill="#000000" font-family="sans-serif" font-size="12" font-weight="bold" lengthAdjust="spacing" textLength="62.502" x="124.749" y="87.748">Feb 2021</text><line style="stroke:#C0C0C0;stroke-width:1;" x1="0" x2="188" y1="92.6094" y2="92.6094"/><!--SRC=[VL1BJnj13BxFh_2jS5XW8gWe1yIpbS96ZHh29Sh1x9fbODOJZJr1- -_hK8K21qwZiR-NlpDHpDeXgxfL3gpIO2Hu8NgEWnFKabiS03D14vDGwwJmfucRvlH4ZSAhbe0-4dXHI0_mX5mm3p0w67ctC9mc7LO4BKde68ZR9Q30ulPyTkEN456Cxt-0EOZRJeD0asBAr49Wg75jDChxTUWUzI8MCY291kxU10u_25IdRm3dDacg0r_vOz04szzez7eGOsycYsjklsqy-pwe4Ys_9htB9XZxnE3EBE6_JjqqsZkVrB2cBC6MVi_uHtlUtvFYqSwSdpczyCPj5Qnv3JtjkfrVqneabTnOLq4qX_kYnjvrOrmZ_2cymPt0xnNn-EfcEu1hNeUSk2TMDxwR_0TyFwmkWiACikM0kucxeWSiKOtHfDQgEO7vxS_gsDN8NS7Ej8dTPJBTFDXkzXS0]--></g></svg>